<?xml version="1.0" encoding="utf-8"?>
<!-- Generator: Adobe Illustrator 26.3.1, SVG Export Plug-In . SVG Version: 6.00 Build 0)  -->
<svg version="1.1" id="Layer_1" xmlns="http://www.w3.org/2000/svg" xmlns:xlink="http://www.w3.org/1999/xlink" x="0px" y="0px"
	 viewBox="0 0 700 700" style="enable-background:new 0 0 700 700;" xml:space="preserve">
<path d="M99.5,306.5c0,80.3,37.8,151.7,96.6,197.6c34.7-47.3,90.7-78,153.9-78s119.1,30.7,153.9,78c58.8-45.8,96.6-117.3,96.6-197.6
	C600.5,168.1,488.4,56,350,56S99.5,168.1,99.5,306.5L99.5,306.5z M441.5,280c0,50.5-41,91.5-91.5,91.5s-91.5-41-91.5-91.5
	s41-91.5,91.5-91.5S441.5,229.5,441.5,280z"/>
<g>
	<path d="M200.9,598.9c2.7-0.4,6.5-0.8,11.8-0.8c5.4,0,9.3,1,11.8,2.9c2.5,1.9,4.1,4.9,4.1,8.5c0,3.6-1.3,6.6-3.6,8.7
		c-3,2.7-7.4,3.9-12.6,3.9c-1.1,0-2.2-0.1-3-0.2v13.1h-8.7V598.9z M209.6,615.5c0.7,0.2,1.7,0.2,2.9,0.2c4.7,0,7.5-2.2,7.5-6
		c0-3.4-2.5-5.4-6.8-5.4c-1.8,0-3,0.2-3.6,0.3V615.5z"/>
	<path d="M239.4,624.4c0.3,3.4,3.9,5.1,7.9,5.1c3,0,5.4-0.4,7.8-1.1l1.1,5.6c-2.9,1.1-6.4,1.6-10.2,1.6c-9.5,0-15-5.2-15-13.6
		c0-6.8,4.4-14.2,14.2-14.2c9.1,0,12.5,6.7,12.5,13.3c0,1.4-0.2,2.7-0.3,3.3H239.4z M249.7,618.7c0-2-0.9-5.4-4.9-5.4
		c-3.7,0-5.2,3.2-5.4,5.4H249.7z"/>
	<path d="M263,617.2c0-3.9-0.1-6.5-0.2-8.8h7.5l0.3,4.9h0.2c1.4-3.9,4.9-5.5,7.6-5.5c0.8,0,1.2,0,1.8,0.1v7.8
		c-0.6-0.1-1.4-0.2-2.4-0.2c-3.2,0-5.4,1.6-6,4.2c-0.1,0.5-0.2,1.2-0.2,1.9v13.5H263V617.2z"/>
	<path d="M284.8,627.8c1.6,0.9,4.9,2,7.5,2c2.6,0,3.7-0.9,3.7-2.2s-0.9-2-4.1-3c-5.8-1.9-8-4.8-8-8c0-5,4.5-8.7,11.4-8.7
		c3.3,0,6.2,0.7,7.9,1.5l-1.6,5.7c-1.3-0.7-3.7-1.5-6.1-1.5c-2.1,0-3.3,0.8-3.3,2.2c0,1.3,1.1,1.9,4.5,3c5.3,1.7,7.6,4.3,7.6,8.2
		c0,5-4.1,8.6-12.2,8.6c-3.7,0-7-0.8-9.1-1.9L284.8,627.8z"/>
	<path d="M337.5,621.5c0,9.7-7.3,14.2-14.8,14.2c-8.2,0-14.5-5.1-14.5-13.7s6-14.1,15-14.1C331.8,607.9,337.5,613.5,337.5,621.5z
		 M317.2,621.7c0,4.6,2,8,5.7,8c3.4,0,5.6-3.2,5.6-8c0-4-1.6-8-5.6-8C318.7,613.7,317.2,617.8,317.2,621.7z"/>
	<path d="M342.9,616.9c0-3.3-0.1-6.2-0.2-8.5h7.6l0.4,3.6h0.2c1.1-1.7,4-4.2,8.7-4.2c5.7,0,10.1,3.6,10.1,11.4v15.8h-8.7v-14.8
		c0-3.4-1.3-5.8-4.4-5.8c-2.4,0-3.9,1.6-4.4,3.1c-0.2,0.5-0.3,1.3-0.3,2.1v15.4h-8.7V616.9z"/>
	<path d="M395.5,635.1l-12.4-36.7h9.6l4.7,15.5c1.3,4.4,2.5,8.5,3.4,13.1h0.2c1-4.4,2.2-8.8,3.5-13l4.9-15.7h9.3l-13,36.7H395.5z"/>
	<path d="M430.1,601c0,2.3-1.8,4.1-4.7,4.1c-2.8,0-4.6-1.8-4.5-4.1c-0.1-2.4,1.8-4.2,4.6-4.2S430.1,598.7,430.1,601z M421.1,635.1
		v-26.6h8.7v26.6H421.1z"/>
	<path d="M443.6,624.4c0.3,3.4,3.9,5.1,7.9,5.1c3,0,5.4-0.4,7.8-1.1l1.1,5.6c-2.9,1.1-6.4,1.6-10.2,1.6c-9.5,0-15-5.2-15-13.6
		c0-6.8,4.4-14.2,14.2-14.2c9.1,0,12.5,6.7,12.5,13.3c0,1.4-0.2,2.7-0.3,3.3H443.6z M453.9,618.7c0-2-0.9-5.4-4.9-5.4
		c-3.7,0-5.2,3.2-5.4,5.4H453.9z"/>
	<path d="M472.9,608.5l2.2,10.9c0.6,2.8,1.1,5.7,1.6,8.8h0.1c0.6-3,1.4-6.1,2.1-8.7l3-10.9h6.9l2.8,10.6c0.7,3,1.5,6,2.1,9h0.1
		c0.4-3,1-6,1.6-9.1l2.4-10.6h8.6l-8.6,26.6h-8.2l-2.6-9.4c-0.7-2.6-1.2-5-1.8-8.3H485c-0.5,3.3-1.1,5.8-1.8,8.3l-2.8,9.4h-8.2
		l-8.2-26.6H472.9z"/>
</g>
</svg>
