<?xml version="1.0" encoding="utf-8"?>
<!-- Generator: Adobe Illustrator 26.3.1, SVG Export Plug-In . SVG Version: 6.00 Build 0)  -->
<svg version="1.1" id="Layer_1" xmlns="http://www.w3.org/2000/svg" xmlns:xlink="http://www.w3.org/1999/xlink" x="0px" y="0px"
	 viewBox="0 0 700 700" style="enable-background:new 0 0 700 700;" xml:space="preserve">
<path d="M152.1,148.8h33.5l21.9-87.5h-26.2L152.1,148.8z"/>
<path d="M148.8,183.8c0,9.7,7.8,17.5,17.5,17.5s17.5-7.8,17.5-17.5v-17.5h-35V183.8z"/>
<path d="M244.2,61.3h-18.7l-21.9,87.5H237L244.2,61.3z"/>
<path d="M201.2,183.8c0,9.7,7.8,17.5,17.5,17.5s17.5-7.8,17.5-17.5v-17.5h-35V183.8z"/>
<path d="M306.2,61.3v87.5h34.3l-7.3-87.5L306.2,61.3z"/>
<path d="M253.8,183.8c0,9.7,7.8,17.5,17.5,17.5s17.5-7.8,17.5-17.5v-17.5h-35V183.8z"/>
<path d="M288.8,61.3h-26.9l-7.3,87.5h34.2L288.8,61.3z"/>
<path d="M306.2,183.8c0,9.7,7.8,17.5,17.5,17.5s17.5-7.8,17.5-17.5v-17.5h-35V183.8z"/>
<path d="M455,346.7l8.2,5.5c3-1.6,6.1-2.9,9.2-4.1V217.6c-6.9-1.8-12.9-5.6-17.5-10.9V346.7z"/>
<path d="M461.3,148.8h33.1l-36.5-87.5h-25.8L461.3,148.8z"/>
<path d="M498.8,183.8v-17.5h-35v17.5c0,9.7,7.8,17.5,17.5,17.5S498.8,193.5,498.8,183.8z"/>
<path d="M401.6,463.8l-7.9-1.6v-49.3l7.4-1.5c-2.7-7.9-9-14.2-17.3-16.7l-57.6-17.3l-28.7,28.7l-28.7-28.7l-57.6,17.3
	c-11.2,3.4-18.7,13.5-18.7,25.2v44h35v-43.8H245v43.8h105v-43.8h17.5v43.8L401.6,463.8z"/>
<path d="M437.5,217.6c-2.8,0.7-5.7,1.2-8.8,1.2c-10.5,0-19.8-4.7-26.2-12.1c-6.4,7.4-15.7,12.1-26.2,12.1s-19.8-4.7-26.2-12.1
	c-6.4,7.4-15.7,12.1-26.2,12.1s-19.8-4.7-26.2-12.1c-6.4,7.4-15.7,12.1-26.2,12.1s-19.8-4.7-26.2-12.1c-6.4,7.4-15.7,12.1-26.2,12.1
	s-19.8-4.7-26.2-12.1c-6.4,7.4-15.7,12.1-26.2,12.1c-3,0-5.9-0.5-8.8-1.2v246.2H175v-44c0-19.5,12.5-36.3,31.2-41.9l56.3-16.9v-15.7
	c-10.7-9.6-17.5-23.5-17.5-39v-26.2c0-29,23.5-52.5,52.5-52.5s52.5,23.5,52.5,52.5v26.2c0,15.5-6.8,29.4-17.5,39V361l56.3,16.9
	c13.5,4.1,23.8,14.1,28.4,26.7c1.4-3.9,3-7.7,4.9-11.3l-12.5-18.8l27.9-27.9L437.5,217.6z"/>
<path d="M280,355.8v8.2l17.5,17.5l17.5-17.5v-8.2c-5.5,2-11.4,3.1-17.5,3.1S285.5,357.7,280,355.8z"/>
<path d="M332.5,306.3v-26.2c0-19.3-15.7-35-35-35s-35,15.7-35,35v26.2c0,19.3,15.7,35,35,35S332.5,325.6,332.5,306.3z"/>
<path d="M131.2,183.8v-17.5h-35v17.5c0,9.7,7.8,17.5,17.5,17.5S131.2,193.5,131.2,183.8z"/>
<path d="M162.9,61.3h-25.8l-36.5,87.5h33.1L162.9,61.3z"/>
<path d="M422.1,481.8c-0.1-0.2-0.1-0.3-0.2-0.5l-281.9,0V206.7c-4.6,5.2-10.6,9.1-17.5,10.9v316.2h320.4l-33.3-33.3L422.1,481.8z
	 M157.5,516.3H140v-17.5h17.5V516.3z M192.5,516.3H175v-17.5h17.5V516.3z M227.5,516.3H210v-17.5h17.5V516.3z"/>
<path d="M463.2,523l-16.3,10.9h32.4l-0.9-4.6C473.2,527.6,468.1,525.5,463.2,523L463.2,523z"/>
<path d="M585.1,423.5l-1.4-5.3c-1.9-7.3-4.8-14.3-8.6-20.8l-2.8-4.7l10.6-15.8l-14.6-14.6l-15.8,10.6l-4.7-2.8
	c-6.4-3.8-13.4-6.7-20.8-8.6l-5.3-1.4l-3.7-18.7h-20.7l-3.7,18.7l-5.3,1.4c-7.3,1.9-14.3,4.8-20.8,8.6l-4.7,2.8l-15.8-10.6
	l-14.6,14.6l10.6,15.8l-2.8,4.7c-3.8,6.4-6.7,13.4-8.6,20.8l-1.4,5.3l-18.7,3.7v20.7l18.7,3.7l1.4,5.3c1.9,7.3,4.8,14.3,8.6,20.8
	l2.8,4.7l-10.6,15.8l14.6,14.6l15.8-10.6l4.7,2.8c6.4,3.8,13.4,6.7,20.8,8.6l5.3,1.4l3.7,18.7h20.7l3.7-18.7l5.3-1.4
	c7.3-1.9,14.3-4.8,20.8-8.6l4.7-2.8l15.8,10.6l14.6-14.6l-10.6-15.8l2.8-4.7c3.8-6.4,6.7-13.4,8.6-20.8l1.4-5.3l18.7-3.7v-20.7
	L585.1,423.5z M507.5,498.8c-33.8,0-61.2-27.5-61.2-61.2c0-12.8,3.9-25,11.4-35.5l14.3,10.1c-5.3,7.5-8.1,16.2-8.1,25.3
	c0,24.1,19.6,43.8,43.8,43.8c9.1,0,17.9-2.8,25.3-8.1l10.1,14.3C532.5,494.9,520.3,498.8,507.5,498.8L507.5,498.8z M557.4,473
	l-14.3-10.1c5.3-7.5,8.1-16.2,8.1-25.3c0-24.1-19.6-43.8-43.8-43.8c-9.1,0-17.9,2.8-25.3,8.1L472,387.7
	c10.4-7.4,22.7-11.4,35.5-11.4c33.8,0,61.3,27.5,61.3,61.2C568.7,450.3,564.8,462.6,557.4,473L557.4,473z"/>
<path d="M442.9,148.8l-29.2-87.5h-26.3l21.7,87.5H442.9z"/>
<path d="M140,26.3h315v17.5H140V26.3z"/>
<path d="M358.8,183.8c0,9.7,7.8,17.5,17.5,17.5s17.5-7.8,17.5-17.5v-17.5h-35V183.8z"/>
<path d="M350.8,61.3l7.3,87.5h33.2l-21.9-87.5L350.8,61.3z"/>
<path d="M446.2,183.8v-17.5h-35v17.5c0,9.7,7.8,17.5,17.5,17.5S446.2,193.5,446.2,183.8z"/>
<g>
	<path d="M272.6,632.4L262.3,600h8l3.9,13.7c1.1,3.8,2.1,7.5,2.9,11.6h0.1c0.8-3.9,1.8-7.7,2.9-11.4l4.1-13.8h7.8l-10.9,32.4H272.6z
		"/>
	<path d="M298.9,623c0.2,3,3.2,4.5,6.6,4.5c2.5,0,4.5-0.3,6.5-1l1,4.9c-2.4,1-5.3,1.4-8.5,1.4c-8,0-12.5-4.6-12.5-12
		c0-6,3.7-12.5,11.9-12.5c7.6,0,10.5,5.9,10.5,11.7c0,1.2-0.1,2.4-0.2,2.9H298.9z M307.5,618c0-1.8-0.8-4.8-4.1-4.8
		c-3.1,0-4.3,2.8-4.5,4.8H307.5z"/>
	<path d="M318.6,616.4c0-2.9-0.1-5.4-0.2-7.5h6.3l0.3,3.2h0.1c1-1.5,3.4-3.7,7.2-3.7c4.8,0,8.4,3.2,8.4,10.1v13.9h-7.3v-13
		c0-3-1.1-5.1-3.7-5.1c-2,0-3.2,1.4-3.7,2.7c-0.2,0.4-0.3,1.2-0.3,1.8v13.5h-7.3V616.4z"/>
	<path d="M369.5,598.3v27.1c0,2.6,0.1,5.4,0.2,7h-6.5l-0.3-3.5h-0.1c-1.5,2.6-4.3,4-7.3,4c-5.6,0-10-4.8-10-12
		c0-7.9,4.9-12.5,10.5-12.5c2.9,0,5.1,1,6.2,2.6h0.1v-12.7H369.5z M362.2,618.8c0-0.4,0-0.9-0.1-1.3c-0.4-2-2-3.6-4.3-3.6
		c-3.3,0-5,3-5,6.7c0,4,2,6.5,5,6.5c2.1,0,3.8-1.4,4.2-3.5c0.1-0.5,0.2-1.1,0.2-1.7V618.8z"/>
	<path d="M398.6,620.4c0,8.6-6.1,12.5-12.4,12.5c-6.9,0-12.1-4.5-12.1-12.1c0-7.6,5-12.4,12.5-12.4
		C393.8,608.4,398.6,613.3,398.6,620.4z M381.6,620.6c0,4,1.7,7.1,4.8,7.1c2.8,0,4.7-2.8,4.7-7.1c0-3.5-1.3-7.1-4.7-7.1
		C382.9,613.5,381.6,617.1,381.6,620.6z"/>
	<path d="M403.1,616.6c0-3.5-0.1-5.7-0.2-7.7h6.3l0.2,4.3h0.2c1.2-3.4,4.1-4.8,6.3-4.8c0.7,0,1,0,1.5,0.1v6.9
		c-0.5-0.1-1.2-0.2-2-0.2c-2.7,0-4.5,1.4-5,3.7c-0.1,0.5-0.1,1.1-0.1,1.6v11.9h-7.3V616.6z"/>
	<path d="M421.3,626c1.3,0.8,4.1,1.8,6.3,1.8c2.2,0,3.1-0.8,3.1-2c0-1.2-0.7-1.8-3.5-2.7c-4.8-1.6-6.7-4.3-6.7-7.1
		c0-4.4,3.7-7.7,9.6-7.7c2.7,0,5.2,0.6,6.6,1.3l-1.3,5c-1.1-0.6-3.1-1.3-5.1-1.3c-1.8,0-2.8,0.7-2.8,1.9c0,1.1,0.9,1.7,3.8,2.7
		c4.5,1.5,6.3,3.8,6.4,7.2c0,4.4-3.5,7.6-10.2,7.6c-3.1,0-5.8-0.7-7.6-1.6L421.3,626z"/>
</g>
</svg>
