<?xml version="1.0" encoding="utf-8"?>
<!-- Generator: Adobe Illustrator 26.3.1, SVG Export Plug-In . SVG Version: 6.00 Build 0)  -->
<svg version="1.1" id="Layer_1" xmlns="http://www.w3.org/2000/svg" xmlns:xlink="http://www.w3.org/1999/xlink" x="0px" y="0px"
	 viewBox="0 0 700 700" style="enable-background:new 0 0 700 700;" xml:space="preserve">
<path d="M175.4,39.2c-2.6,0.5-4.6,3-4.6,5.6v470.4c0,2.9,2.7,5.6,5.6,5.6h347.2c2.9,0,5.6-2.7,5.6-5.6V128.8c0-1.3-0.5-2.7-1.4-3.7
	c-24.5-28.3-54.5-56.3-78.4-84c-1-1.2-2.6-1.9-4.2-1.9L175.4,39.2L175.4,39.2z M182,50.4h257.6v78.4c0,2.9,2.7,5.6,5.6,5.6H518
	v375.2H182L182,50.4z M260.4,117.6v17.1c-22.5,2.6-39.2,21.1-39.2,44.4c0,11.5,9,19.6,18.2,25c14.9,9.5,33.2,7.2,47.6,15.4
	c7.6,4.4,12.6,10.3,12.6,15.6c0,19.6-14,33.6-33.6,33.6c-14.3,0-29.2-10-33.9-24.3c-0.7-3.1-4.3-5.1-7.3-4.1c-3,1-4.6,4.9-3.2,7.7
	c5.8,17.4,21.6,29.4,38.9,31.5v17.1h11.2v-17.1c22.5-2.6,39.2-21.1,39.2-44.4c0-11.5-9-19.8-18.2-25.2c-15.1-9.1-33.4-7.3-47.6-15.4
	c-7.6-4.4-12.6-10.1-12.6-15.4c0-19.6,14-33.6,33.6-33.6c14.3,0,29.2,9.8,33.9,24.1c0.7,3.1,4.3,5.1,7.3,4.1s4.6-4.9,3.2-7.7
	c-5.8-17.4-21.6-29.2-38.9-31.3v-17.1L260.4,117.6z M343.6,135.2c0.4,2.9,3.5,5.2,6.4,4.8h67.2c3,0,5.7-2.6,5.7-5.6
	c0-3-2.7-5.6-5.7-5.6H350C345.9,128.6,344,131.4,343.6,135.2L343.6,135.2z M343.6,180c0.4,2.9,3.5,5.2,6.4,4.8h123.2
	c3,0,5.7-2.6,5.7-5.6c0-3-2.7-5.6-5.7-5.6H350C345.9,173.4,343.9,175.7,343.6,180L343.6,180z M343.6,224.8c0.4,2.9,3.5,5.2,6.4,4.8
	h123.2c3,0,5.7-2.6,5.7-5.6c0-3-2.7-5.6-5.7-5.6H350C345.9,218.2,343.6,220.6,343.6,224.8L343.6,224.8z M343.6,269.6
	c0.4,2.9,3.5,5.2,6.4,4.8h123.2c3,0.1,5.7-2.6,5.7-5.6s-2.7-5.6-5.7-5.6H350C345.9,263,343.4,265.5,343.6,269.6L343.6,269.6z
	 M220.4,314.4c0.4,2.9,3.5,5.2,6.4,4.8h246.4c3,0.1,5.7-2.6,5.7-5.6c0-3-2.7-5.6-5.7-5.6H226.8C222.7,307.8,220.6,310,220.4,314.4
	L220.4,314.4z M220.4,359.2c0.4,2.9,3.5,5.2,6.4,4.8h246.4c3,0.1,5.7-2.6,5.7-5.6c0-3-2.7-5.6-5.7-5.6H226.8
	C222.7,352.6,220,355.5,220.4,359.2L220.4,359.2z M220.4,404c0.4,2.9,3.5,5.2,6.4,4.8h246.4c3,0.1,5.7-2.6,5.7-5.6
	c0-3-2.7-5.6-5.7-5.6H226.8C222.7,397.4,220.5,400.9,220.4,404L220.4,404z M220.4,448.8c0.4,2.9,3.5,5.2,6.4,4.8h246.4
	c3,0.1,5.7-2.6,5.7-5.6s-2.7-5.6-5.7-5.6H226.8C222.7,442.2,220.6,445.1,220.4,448.8L220.4,448.8z"/>
<g>
	<path d="M274.5,601.2c-1.3,0.7-4.4,1.4-8.3,1.4c-11.2,0-16.9-7-16.9-16.2c0-11,7.9-17.2,17.7-17.2c3.8,0,6.7,0.8,8,1.4l-1.5,5.8
		c-1.5-0.6-3.6-1.2-6.1-1.2c-5.8,0-10.3,3.5-10.3,10.7c0,6.5,3.8,10.6,10.4,10.6c2.2,0,4.7-0.5,6.1-1.1L274.5,601.2z"/>
	<path d="M301.3,590.2c0,8.6-6.1,12.5-12.4,12.5c-6.9,0-12.1-4.5-12.1-12.1c0-7.6,5-12.4,12.5-12.4
		C296.5,578.2,301.3,583.1,301.3,590.2z M284.3,590.4c0,4,1.7,7.1,4.8,7.1c2.8,0,4.7-2.8,4.7-7.1c0-3.5-1.3-7.1-4.7-7.1
		C285.6,583.3,284.3,586.9,284.3,590.4z"/>
	<path d="M305.8,586.2c0-2.9-0.1-5.4-0.2-7.5h6.3l0.3,3.2h0.1c1-1.5,3.4-3.7,7.2-3.7c4.8,0,8.4,3.2,8.4,10.1v13.9h-7.3v-13
		c0-3-1.1-5.1-3.7-5.1c-2,0-3.2,1.4-3.7,2.7c-0.2,0.4-0.3,1.2-0.3,1.8v13.5h-7.3V586.2z"/>
	<path d="M341.8,572v6.7h5.2v5.4h-5.2v8.5c0,2.8,0.7,4.1,2.9,4.1c0.9,0,1.6-0.1,2.2-0.2l0,5.5c-1,0.4-2.7,0.6-4.8,0.6
		c-2.4,0-4.3-0.8-5.5-2c-1.3-1.4-2-3.6-2-7v-9.6h-3.1v-5.4h3.1v-5.1L341.8,572z"/>
	<path d="M351.3,586.4c0-3.5-0.1-5.7-0.2-7.7h6.3l0.2,4.3h0.2c1.2-3.4,4.1-4.8,6.3-4.8c0.7,0,1,0,1.5,0.1v6.9
		c-0.5-0.1-1.2-0.2-2-0.2c-2.7,0-4.5,1.4-5,3.7c-0.1,0.5-0.1,1.1-0.1,1.6v11.9h-7.3V586.4z"/>
	<path d="M382.3,602.2l-0.4-2.4h-0.1c-1.5,1.9-3.9,2.9-6.7,2.9c-4.8,0-7.6-3.5-7.6-7.2c0-6.1,5.5-9,13.8-9v-0.3c0-1.2-0.7-3-4.3-3
		c-2.4,0-4.9,0.8-6.5,1.8l-1.3-4.7c1.6-0.9,4.8-2.1,9.1-2.1c7.8,0,10.3,4.6,10.3,10.1v8.2c0,2.3,0.1,4.4,0.3,5.7H382.3z
		 M381.5,591.1c-3.8,0-6.8,0.9-6.8,3.7c0,1.9,1.2,2.8,2.9,2.8c1.8,0,3.3-1.2,3.8-2.7c0.1-0.4,0.1-0.8,0.1-1.2V591.1z"/>
	<path d="M411.9,601.6c-1.3,0.6-3.7,1.1-6.5,1.1c-7.6,0-12.4-4.6-12.4-12c0-6.9,4.7-12.5,13.4-12.5c1.9,0,4,0.3,5.6,0.9l-1.2,5.4
		c-0.9-0.4-2.2-0.7-4.1-0.7c-3.8,0-6.3,2.7-6.3,6.6c0,4.3,2.9,6.6,6.4,6.6c1.7,0,3.1-0.3,4.2-0.7L411.9,601.6z"/>
	<path d="M424.9,572v6.7h5.2v5.4h-5.2v8.5c0,2.8,0.7,4.1,2.9,4.1c0.9,0,1.6-0.1,2.2-0.2l0,5.5c-1,0.4-2.7,0.6-4.8,0.6
		c-2.4,0-4.3-0.8-5.5-2c-1.3-1.4-2-3.6-2-7v-9.6h-3.1v-5.4h3.1v-5.1L424.9,572z"/>
	<path d="M434.3,595.8c1.3,0.8,4.1,1.8,6.3,1.8c2.2,0,3.1-0.8,3.1-2c0-1.2-0.7-1.8-3.5-2.7c-4.8-1.6-6.7-4.3-6.7-7.1
		c0-4.4,3.7-7.7,9.6-7.7c2.7,0,5.2,0.6,6.6,1.3l-1.3,5c-1.1-0.6-3.1-1.3-5.1-1.3c-1.8,0-2.8,0.7-2.8,1.9c0,1.1,0.9,1.7,3.8,2.7
		c4.5,1.5,6.3,3.8,6.4,7.2c0,4.4-3.5,7.6-10.2,7.6c-3.1,0-5.8-0.7-7.6-1.6L434.3,595.8z"/>
</g>
</svg>
