<?xml version="1.0" encoding="utf-8"?>
<!-- Generator: Adobe Illustrator 26.3.1, SVG Export Plug-In . SVG Version: 6.00 Build 0)  -->
<svg version="1.1" id="Layer_1" xmlns="http://www.w3.org/2000/svg" xmlns:xlink="http://www.w3.org/1999/xlink" x="0px" y="0px"
	 viewBox="0 0 700 700" style="enable-background:new 0 0 700 700;" xml:space="preserve">
<path d="M350,532.9c139.4,0,252.9-113.4,252.9-252.9c0-139.4-113.4-252.9-252.9-252.9C210.6,27.1,97.1,140.6,97.1,280
	S210.6,532.9,350,532.9z M205.6,453.4c4.5-55.9,45.1-77,144.4-77c99.2,0,139.9,21.1,144.4,77c-39.2,32.7-89.5,52.4-144.4,52.4
	C295.1,505.7,244.8,486,205.6,453.4L205.6,453.4z M269.4,268.6c0-44.4,36.2-80.6,80.6-80.6s80.6,36.2,80.6,80.6
	c0,44.4-36.2,80.6-80.6,80.6S269.4,313.1,269.4,268.6z M350,54.3c124.5,0,225.7,101.3,225.7,225.7c0,57.9-21.9,110.7-57.8,150.7
	c-13.3-52-57.8-70.8-101.2-77.6c25-19.7,41.1-50.2,41.1-84.4c0-59.4-48.3-107.7-107.7-107.7c-59.4,0-107.7,48.3-107.7,107.7
	c0,34.2,16.1,64.7,41.1,84.4c-43.4,6.8-88,25.6-101.2,77.6c-35.9-40-57.8-92.8-57.8-150.7C124.3,155.5,225.5,54.3,350,54.3L350,54.3
	z"/>
<g>
	<path d="M201.4,601.3c2.7-0.4,6.5-0.8,11.8-0.8c5.4,0,9.3,1,11.8,2.9c2.5,1.9,4.1,4.9,4.1,8.5c0,3.6-1.3,6.6-3.6,8.7
		c-3,2.7-7.4,3.9-12.6,3.9c-1.1,0-2.2-0.1-3-0.2v13.1h-8.7V601.3z M210.1,617.9c0.7,0.2,1.7,0.2,2.9,0.2c4.7,0,7.5-2.2,7.5-6
		c0-3.4-2.5-5.4-6.8-5.4c-1.8,0-3,0.2-3.6,0.3V617.9z"/>
	<path d="M239.8,626.8c0.3,3.4,3.9,5.1,7.9,5.1c3,0,5.4-0.4,7.8-1.1l1.1,5.6c-2.9,1.1-6.4,1.6-10.2,1.6c-9.5,0-15-5.2-15-13.6
		c0-6.8,4.4-14.2,14.2-14.2c9.1,0,12.5,6.7,12.5,13.3c0,1.4-0.2,2.7-0.3,3.3H239.8z M250.1,621.1c0-2-0.9-5.4-4.9-5.4
		c-3.7,0-5.2,3.2-5.4,5.4H250.1z"/>
	<path d="M263.5,619.6c0-3.9-0.1-6.5-0.2-8.8h7.5l0.3,4.9h0.2c1.4-3.9,4.9-5.5,7.6-5.5c0.8,0,1.2,0,1.8,0.1v7.8
		c-0.6-0.1-1.4-0.2-2.4-0.2c-3.2,0-5.4,1.6-6,4.2c-0.1,0.5-0.2,1.2-0.2,1.9v13.5h-8.7V619.6z"/>
	<path d="M285.2,630.2c1.6,0.9,4.9,2,7.5,2c2.6,0,3.7-0.9,3.7-2.2s-0.9-2-4.1-3c-5.8-1.9-8-4.8-8-8c0-5,4.5-8.7,11.4-8.7
		c3.3,0,6.2,0.7,7.9,1.5l-1.6,5.7c-1.3-0.7-3.7-1.5-6.1-1.5c-2.1,0-3.3,0.8-3.3,2.2c0,1.3,1.1,1.9,4.5,3c5.3,1.7,7.6,4.3,7.6,8.2
		c0,5-4.1,8.6-12.2,8.6c-3.7,0-7-0.8-9.1-1.9L285.2,630.2z"/>
	<path d="M338,623.8c0,9.7-7.3,14.2-14.8,14.2c-8.2,0-14.5-5.1-14.5-13.7c0-8.6,6-14.1,15-14.1C332.3,610.2,338,615.8,338,623.8z
		 M317.7,624.1c0,4.6,2,8,5.7,8c3.4,0,5.6-3.2,5.6-8c0-4-1.6-8-5.6-8C319.2,616.1,317.7,620.2,317.7,624.1z"/>
	<path d="M343.4,619.3c0-3.3-0.1-6.2-0.2-8.5h7.6l0.4,3.6h0.2c1.1-1.7,4-4.2,8.7-4.2c5.7,0,10.1,3.6,10.1,11.4v15.8h-8.7v-14.8
		c0-3.4-1.3-5.8-4.4-5.8c-2.4,0-3.9,1.6-4.4,3.1c-0.2,0.5-0.3,1.3-0.3,2.1v15.4h-8.7V619.3z"/>
	<path d="M396,637.5l-12.4-36.7h9.6l4.7,15.5c1.3,4.4,2.5,8.5,3.4,13.1h0.2c1-4.4,2.2-8.8,3.5-13l4.9-15.7h9.3l-13,36.7H396z"/>
	<path d="M430.6,603.4c0,2.3-1.8,4.1-4.7,4.1c-2.8,0-4.6-1.9-4.5-4.1c-0.1-2.4,1.8-4.2,4.6-4.2S430.5,601,430.6,603.4z M421.6,637.5
		v-26.6h8.7v26.6H421.6z"/>
	<path d="M444,626.8c0.3,3.4,3.9,5.1,7.9,5.1c3,0,5.4-0.4,7.8-1.1l1.1,5.6c-2.9,1.1-6.4,1.6-10.2,1.6c-9.5,0-15-5.2-15-13.6
		c0-6.8,4.4-14.2,14.2-14.2c9.1,0,12.5,6.7,12.5,13.3c0,1.4-0.2,2.7-0.3,3.3H444z M454.3,621.1c0-2-0.9-5.4-4.9-5.4
		c-3.7,0-5.2,3.2-5.4,5.4H454.3z"/>
	<path d="M473.4,610.8l2.2,10.9c0.6,2.8,1.1,5.7,1.6,8.8h0.1c0.6-3,1.4-6.1,2.1-8.7l3-10.9h6.9l2.8,10.6c0.7,3,1.5,6,2.1,9h0.1
		c0.4-3,1-6,1.6-9.1l2.4-10.6h8.6l-8.6,26.6H490l-2.6-9.4c-0.7-2.6-1.2-5-1.8-8.3h-0.1c-0.5,3.3-1.1,5.8-1.8,8.3l-2.8,9.4h-8.2
		l-8.2-26.6H473.4z"/>
</g>
</svg>
