<?xml version="1.0" encoding="utf-8"?>
<!-- Generator: Adobe Illustrator 26.3.1, SVG Export Plug-In . SVG Version: 6.00 Build 0)  -->
<svg version="1.1" id="Layer_1" xmlns="http://www.w3.org/2000/svg" xmlns:xlink="http://www.w3.org/1999/xlink" x="0px" y="0px"
	 viewBox="0 0 700 700" style="enable-background:new 0 0 700 700;" xml:space="preserve">
<path d="M140,498.8h17.5v17.5H140V498.8z"/>
<path d="M175,498.8h17.5v17.5H175V498.8z"/>
<path d="M210,498.8h17.5v17.5H210V498.8z"/>
<path d="M621.2,462.2v-49.3l-22.1-4.4c-1.7-5.2-3.8-10.3-6.3-15.1l12.5-18.8l-34.9-34.9l-18.7,12.5c-4.9-2.5-9.9-4.6-15.2-6.3
	l-4.4-22.1H490V217.5c15.1-3.9,26.2-17.5,26.2-33.8v-28l-43.8-105v-42h-350v42l-43.8,105v28c0,16.3,11.2,29.8,26.2,33.8v333.7h427.2
	l4.4-22.1c5.2-1.7,10.3-3.8,15.2-6.3l18.7,12.5l34.9-34.9l-12.5-18.8c2.5-4.9,4.6-9.9,6.3-15.1L621.2,462.2z M422.1,393.3
	c-1.9,3.7-3.5,7.5-4.9,11.3c-4.6-12.6-14.9-22.6-28.4-26.7L332.5,361v-15.7c10.7-9.6,17.5-23.5,17.5-39V280
	c0-29-23.5-52.5-52.5-52.5S245,251,245,280v26.2c0,15.5,6.8,29.4,17.5,39V361l-56.3,16.9c-18.6,5.6-31.2,22.4-31.2,41.9v44h-17.5
	V217.5c2.8,0.7,5.7,1.2,8.8,1.2c10.5,0,19.8-4.7,26.2-12.1c6.4,7.4,15.8,12.1,26.2,12.1s19.8-4.7,26.2-12.1
	c6.4,7.4,15.8,12.1,26.2,12.1s19.8-4.7,26.2-12.1c6.4,7.4,15.8,12.1,26.2,12.1s19.8-4.7,26.2-12.1c6.4,7.4,15.8,12.1,26.2,12.1
	s19.8-4.7,26.2-12.1c6.4,7.4,15.8,12.1,26.2,12.1c3,0,5.9-0.5,8.8-1.2v129.1l-27.9,27.9L422.1,393.3z M350,420v43.8H245V420h-17.5
	v43.8h-35v-44c0-11.7,7.5-21.8,18.7-25.1l57.6-17.3l28.7,28.7l28.7-28.7l57.5,17.3c8.4,2.5,14.7,8.8,17.3,16.7l-7.4,1.5v49.3
	l7.9,1.6h-34.1V420L350,420z M297.5,341.3c-19.3,0-35-15.7-35-35V280c0-19.3,15.7-35,35-35s35,15.7,35,35v26.2
	C332.5,325.6,316.8,341.3,297.5,341.3z M297.5,358.8c6.1,0,12-1.1,17.5-3.1v8.2l-17.5,17.5L280,363.9v-8.2
	C285.5,357.6,291.4,358.8,297.5,358.8z M162.9,61.3l-29.2,87.5h-33.1l36.5-87.5H162.9z M457.9,61.3l36.5,87.5h-33.1l-29.2-87.5
	H457.9z M446.2,183.8c0,9.7-7.8,17.5-17.5,17.5s-17.5-7.8-17.5-17.5v-17.5h35V183.8z M201.2,166.3h35v17.5c0,9.7-7.8,17.5-17.5,17.5
	s-17.5-7.8-17.5-17.5V166.3z M253.7,166.3h35v17.5c0,9.7-7.8,17.5-17.5,17.5s-17.5-7.8-17.5-17.5V166.3z M306.2,166.3h35v17.5
	c0,9.7-7.8,17.5-17.5,17.5s-17.5-7.8-17.5-17.5V166.3z M358.7,166.3h35v17.5c0,9.7-7.8,17.5-17.5,17.5s-17.5-7.8-17.5-17.5V166.3z
	 M442.9,148.8h-33.8l-21.7-87.5h26.3L442.9,148.8z M369.4,61.3l21.9,87.5H358l-7.3-87.5H369.4z M333.2,61.3l7.3,87.5h-34.3V61.3
	H333.2z M288.7,148.8h-34.2l7.3-87.5h26.9L288.7,148.8z M237,148.8h-33.3l21.9-87.5h18.7L237,148.8z M185.7,148.8h-33.5l29.2-87.5
	h26.2L185.7,148.8z M183.7,166.3v17.5c0,9.7-7.8,17.5-17.5,17.5s-17.5-7.8-17.5-17.5v-17.5H183.7z M455,206.7
	c4.6,5.2,10.6,9.1,17.5,10.9V348c-3.1,1.2-6.2,2.6-9.2,4.1l-8.2-5.5V206.7z M481.2,201.3c-9.7,0-17.5-7.8-17.5-17.5v-17.5h35v17.5
	C498.7,193.4,490.9,201.3,481.2,201.3z M455,26.3v17.5H140V26.3H455z M96.2,183.8v-17.5h35v17.5c0,9.7-7.8,17.5-17.5,17.5
	S96.2,193.4,96.2,183.8z M122.5,217.5c6.9-1.8,12.9-5.6,17.5-10.9v274.6h281.9c0.1,0.2,0.1,0.3,0.2,0.5l-12.5,18.8l33.3,33.2H122.5
	L122.5,217.5z M447,533.7l16.3-10.9c4.9,2.5,9.9,4.6,15.2,6.3l0.9,4.6L447,533.7z M585.1,451.6l-1.4,5.3c-1.9,7.3-4.8,14.3-8.6,20.8
	l-2.8,4.7l10.6,15.8l-14.6,14.6l-15.8-10.6l-4.7,2.8c-6.5,3.9-13.4,6.7-20.8,8.6l-5.3,1.4l-3.7,18.7h-20.6l-3.7-18.7l-5.3-1.4
	c-7.3-1.9-14.3-4.8-20.8-8.6l-4.7-2.8l-15.8,10.6l-14.6-14.6l10.6-15.8l-2.8-4.7c-3.8-6.4-6.7-13.4-8.6-20.8l-1.4-5.3l-18.7-3.7
	v-20.7l18.7-3.7l1.4-5.3c1.9-7.3,4.8-14.3,8.6-20.8l2.8-4.7l-10.6-15.8l14.6-14.6l15.8,10.6l4.7-2.8c6.5-3.9,13.4-6.7,20.8-8.6
	l5.3-1.4l3.7-18.7h20.6l3.7,18.7l5.3,1.4c7.3,1.9,14.3,4.8,20.8,8.6l4.7,2.8l15.8-10.6l14.6,14.6l-10.6,15.8l2.8,4.7
	c3.8,6.4,6.7,13.4,8.6,20.8l1.4,5.3l18.7,3.7v20.7L585.1,451.6z"/>
<path d="M507.5,376.2c-12.8,0-25,3.9-35.5,11.4l10.1,14.3c7.5-5.3,16.2-8.1,25.3-8.1c24.1,0,43.8,19.6,43.8,43.8
	c0,9.1-2.8,17.9-8.1,25.3l14.3,10.1c7.4-10.4,11.4-22.7,11.4-35.5C568.7,403.7,541.3,376.2,507.5,376.2L507.5,376.2z"/>
<path d="M507.5,481.2c-24.1,0-43.8-19.6-43.8-43.8c0-9.1,2.8-17.9,8.1-25.3L457.6,402c-7.4,10.4-11.4,22.7-11.4,35.5
	c0,33.8,27.5,61.2,61.2,61.2c12.8,0,25-3.9,35.5-11.4l-10.1-14.3C525.4,478.4,516.6,481.3,507.5,481.2L507.5,481.2z"/>
<g>
	<path d="M272.6,633l-10.4-32.4h8l3.9,13.7c1.1,3.8,2.1,7.5,2.9,11.6h0.1c0.8-3.9,1.8-7.7,2.9-11.4l4.1-13.8h7.8L281.2,633H272.6z"
		/>
	<path d="M298.9,623.6c0.2,3,3.2,4.5,6.6,4.5c2.5,0,4.5-0.3,6.5-1l1,4.9c-2.4,1-5.3,1.4-8.5,1.4c-8,0-12.5-4.6-12.5-12
		c0-6,3.7-12.5,11.9-12.5c7.6,0,10.5,5.9,10.5,11.7c0,1.2-0.1,2.4-0.2,2.9H298.9z M307.5,618.6c0-1.8-0.8-4.8-4.1-4.8
		c-3.1,0-4.3,2.8-4.5,4.8H307.5z"/>
	<path d="M318.6,617c0-2.9-0.1-5.4-0.2-7.5h6.3l0.3,3.2h0.1c1-1.5,3.4-3.7,7.2-3.7c4.8,0,8.4,3.2,8.4,10.1V633h-7.3v-13
		c0-3-1.1-5.1-3.7-5.1c-2,0-3.2,1.4-3.7,2.7c-0.2,0.4-0.3,1.2-0.3,1.8V633h-7.3V617z"/>
	<path d="M369.5,598.9V626c0,2.6,0.1,5.4,0.2,7h-6.5l-0.3-3.5h-0.1c-1.5,2.6-4.3,4-7.3,4c-5.6,0-10-4.8-10-12
		c0-7.9,4.9-12.5,10.5-12.5c2.9,0,5.1,1,6.2,2.6h0.1v-12.7H369.5z M362.2,619.5c0-0.4,0-0.9-0.1-1.3c-0.4-2-2-3.6-4.3-3.6
		c-3.3,0-5,3-5,6.7c0,4,2,6.5,5,6.5c2.1,0,3.8-1.4,4.2-3.5c0.1-0.5,0.2-1.1,0.2-1.7V619.5z"/>
	<path d="M398.6,621c0,8.6-6.1,12.5-12.4,12.5c-6.9,0-12.1-4.5-12.1-12.1c0-7.6,5-12.4,12.5-12.4C393.8,609,398.6,613.9,398.6,621z
		 M381.6,621.2c0,4,1.7,7.1,4.8,7.1c2.8,0,4.7-2.8,4.7-7.1c0-3.5-1.3-7.1-4.7-7.1C382.9,614.2,381.6,617.8,381.6,621.2z"/>
	<path d="M403.1,617.3c0-3.5-0.1-5.7-0.2-7.7h6.3l0.2,4.3h0.2c1.2-3.4,4.1-4.8,6.3-4.8c0.7,0,1,0,1.5,0.1v6.9
		c-0.5-0.1-1.2-0.2-2-0.2c-2.7,0-4.5,1.4-5,3.7c-0.1,0.5-0.1,1.1-0.1,1.6V633h-7.3V617.3z"/>
	<path d="M421.3,626.6c1.3,0.8,4.1,1.8,6.3,1.8c2.2,0,3.1-0.8,3.1-2c0-1.2-0.7-1.8-3.5-2.7c-4.8-1.6-6.7-4.3-6.7-7.1
		c0-4.4,3.7-7.7,9.6-7.7c2.7,0,5.2,0.6,6.6,1.3l-1.3,5c-1.1-0.6-3.1-1.3-5.1-1.3c-1.8,0-2.8,0.7-2.8,1.9c0,1.1,0.9,1.7,3.8,2.7
		c4.5,1.5,6.3,3.8,6.4,7.2c0,4.4-3.5,7.6-10.2,7.6c-3.1,0-5.8-0.7-7.6-1.6L421.3,626.6z"/>
</g>
</svg>
