<?xml version="1.0" encoding="utf-8"?>
<!-- Generator: Adobe Illustrator 26.3.1, SVG Export Plug-In . SVG Version: 6.00 Build 0)  -->
<svg version="1.1" id="Layer_1" xmlns="http://www.w3.org/2000/svg" xmlns:xlink="http://www.w3.org/1999/xlink" x="0px" y="0px"
	 viewBox="0 0 700 700" style="enable-background:new 0 0 700 700;" xml:space="preserve">
<path d="M482.5,203h42c3.6,0,6.6-2.9,6.6-6.6c0-3.6-2.9-6.6-6.6-6.6h-42c-3.6,0-6.6,2.9-6.6,6.6C475.9,200,478.9,203,482.5,203
	L482.5,203z"/>
<path d="M543.7,204.6c3.3,0,6.3-2,7.5-5c1.3-3.1,0.6-6.6-1.8-8.9c-2.3-2.3-5.8-3-8.9-1.8c-3,1.3-5,4.2-5,7.5
	C535.5,200.9,539.2,204.5,543.7,204.6L543.7,204.6z"/>
<path d="M197,82.4c-3.6,0-6.6,2.9-6.6,6.6v13.4c0,3.6,2.9,6.6,6.6,6.6c3.6,0,6.6-2.9,6.6-6.6V88.9C203.6,85.3,200.6,82.4,197,82.4z"
	/>
<path d="M197,118.3c-3.6,0-6.6,2.9-6.6,6.6v99.4c0,3.6,2.9,6.6,6.6,6.6c3.6,0,6.6-2.9,6.6-6.6v-99.4c0-1.7-0.7-3.4-1.9-4.6
	C200.4,119,198.7,118.3,197,118.3L197,118.3z"/>
<path d="M621.3,238.2v-33c0-8.1-3.2-15.8-8.9-21.5c-5.7-5.7-13.5-8.9-21.5-8.9h-31.1V35.8c0-8.1-3.2-15.8-8.9-21.5
	c-5.7-5.7-13.4-8.9-21.5-8.9H147.6c-8.1,0-15.8,3.2-21.5,8.9c-5.7,5.7-8.9,13.4-8.9,21.5V315H82c-3.6,0-6.6,2.9-6.6,6.6v31
	c0,8.1,3.2,15.8,8.9,21.5c5.7,5.7,13.4,8.9,21.5,8.9h300.5v141.2c0,8.1,3.2,15.8,8.9,21.5c5.7,5.7,13.5,8.9,21.5,8.9h154
	c8.1,0,15.8-3.2,21.5-8.9c5.7-5.7,8.9-13.5,8.9-21.5V265.3c2-1.2,3.2-3.3,3.2-5.6v-15.9C624.5,241.5,623.3,239.3,621.3,238.2
	L621.3,238.2z M559.1,187.8v9.4h0c0,5.2-4.2,9.4-9.4,9.4H478c-5.2,0-9.4-4.2-9.4-9.4v-9.4H559.1z M406.4,369.7H105.9
	c-4.6,0-9-1.8-12.2-5s-5.1-7.6-5.1-12.2v-24.4h195.6v7.7c0,4.9,2,9.6,5.4,13.1c3.5,3.5,8.2,5.4,13.1,5.4h71.6
	c4.9,0,9.6-1.9,13.1-5.4c3.5-3.5,5.4-8.2,5.4-13.1v-7.7h13.7L406.4,369.7z M297.3,335.8v-7.7h82.3v7.7c0,3-2.4,5.3-5.4,5.3h-71.6
	C299.7,341.2,297.3,338.8,297.3,335.8L297.3,335.8z M406.4,205.2V245c-2.6,0.9-4.4,3.4-4.4,6.2v15.9v0c0,2.8,1.8,5.2,4.4,6.2v6
	H227.6c-3.6,0-6.6,2.9-6.6,6.6s2.9,6.6,6.6,6.6h174.4V307c0,2.8,1.8,5.2,4.4,6.2v1.8H130.3V35.8c0-4.6,1.8-9,5.1-12.2s7.6-5,12.2-5
	h381.7c4.6,0,9,1.8,12.2,5s5.1,7.6,5.1,12.2v138.9H524V47.7c0-3.6-2.9-6.6-6.6-6.6H159.6c-3.6,0-6.6,2.9-6.6,6.6v238.1
	c0,3.6,2.9,6.6,6.6,6.6h24.3c3.6,0,6.6-2.9,6.6-6.6s-2.9-6.6-6.6-6.6h-17.7v-225h344.7v120.4h-74c-8.1,0-15.8,3.2-21.5,8.9
	C409.6,189.3,406.4,197.1,406.4,205.2L406.4,205.2z M608.2,524.1c0,4.6-1.8,9-5.1,12.3c-3.3,3.3-7.7,5.1-12.3,5.1h-154
	c-4.6,0-9-1.8-12.3-5.1c-3.2-3.2-5.1-7.7-5.1-12.3V205.2c0-4.6,1.8-9,5.1-12.3c3.3-3.3,7.7-5.1,12.3-5.1h18.6v9.4
	c0,6,2.4,11.7,6.6,15.9c4.2,4.2,9.9,6.6,15.9,6.6h71.7c6,0,11.7-2.4,15.9-6.6s6.6-9.9,6.6-15.9v-9.4h18.6c4.6,0,9,1.8,12.3,5.1
	s5.1,7.7,5.1,12.3L608.2,524.1z"/>
<g>
	<path d="M270.2,591.1c2.7-0.4,6.2-0.7,9.9-0.7c6.1,0,10.1,1.1,13.2,3.5c3.4,2.5,5.5,6.5,5.5,12.2c0,6.2-2.3,10.5-5.4,13.1
		c-3.4,2.8-8.6,4.2-14.9,4.2c-3.8,0-6.5-0.2-8.3-0.5V591.1z M277.5,617.5c0.6,0.1,1.6,0.1,2.5,0.1c6.6,0,10.9-3.6,10.9-11.3
		c0-6.7-3.9-10.3-10.2-10.3c-1.6,0-2.7,0.1-3.3,0.3V617.5z"/>
	<path d="M308.9,613.6c0.2,3,3.2,4.5,6.6,4.5c2.5,0,4.5-0.3,6.5-1l1,4.9c-2.4,1-5.3,1.4-8.5,1.4c-8,0-12.5-4.6-12.5-12
		c0-6,3.7-12.5,11.9-12.5c7.6,0,10.5,5.9,10.5,11.7c0,1.2-0.1,2.4-0.2,2.9H308.9z M317.5,608.6c0-1.8-0.8-4.8-4.1-4.8
		c-3.1,0-4.3,2.8-4.5,4.8H317.5z"/>
	<path d="M333.8,599.5l3.2,10.9c0.6,2,1,3.8,1.3,5.7h0.1c0.4-1.9,0.8-3.7,1.3-5.7l3-10.9h7.7l-8.7,23.5h-7.3l-8.5-23.5H333.8z"/>
	<path d="M361.4,593c0,2-1.5,3.6-3.9,3.6c-2.3,0-3.8-1.6-3.8-3.6c0-2.1,1.5-3.7,3.8-3.7C359.8,589.3,361.3,590.9,361.4,593z
		 M353.8,623v-23.5h7.3V623H353.8z"/>
	<path d="M384.6,622.4c-1.3,0.6-3.7,1.1-6.5,1.1c-7.6,0-12.4-4.6-12.4-12c0-6.9,4.7-12.5,13.4-12.5c1.9,0,4,0.3,5.6,0.9l-1.2,5.4
		c-0.9-0.4-2.2-0.7-4.1-0.7c-3.8,0-6.3,2.7-6.3,6.6c0,4.3,2.9,6.6,6.4,6.6c1.7,0,3.1-0.3,4.2-0.7L384.6,622.4z"/>
	<path d="M393.7,613.6c0.2,3,3.2,4.5,6.6,4.5c2.5,0,4.5-0.3,6.5-1l1,4.9c-2.4,1-5.3,1.4-8.5,1.4c-8,0-12.5-4.6-12.5-12
		c0-6,3.7-12.5,11.9-12.5c7.6,0,10.5,5.9,10.5,11.7c0,1.2-0.1,2.4-0.2,2.9H393.7z M402.3,608.6c0-1.8-0.8-4.8-4.1-4.8
		c-3.1,0-4.3,2.8-4.5,4.8H402.3z"/>
	<path d="M413.4,616.6c1.3,0.8,4.1,1.8,6.3,1.8c2.2,0,3.1-0.8,3.1-2c0-1.2-0.7-1.8-3.5-2.7c-4.8-1.6-6.7-4.3-6.7-7.1
		c0-4.4,3.7-7.7,9.6-7.7c2.7,0,5.2,0.6,6.6,1.3l-1.3,5c-1.1-0.6-3.1-1.3-5.1-1.3c-1.8,0-2.8,0.7-2.8,1.9c0,1.1,0.9,1.7,3.8,2.7
		c4.5,1.5,6.3,3.8,6.4,7.2c0,4.4-3.5,7.6-10.2,7.6c-3.1,0-5.8-0.7-7.6-1.6L413.4,616.6z"/>
</g>
</svg>
