<?xml version="1.0" encoding="utf-8"?>
<!-- Generator: Adobe Illustrator 26.3.1, SVG Export Plug-In . SVG Version: 6.00 Build 0)  -->
<svg version="1.1" id="Layer_1" xmlns="http://www.w3.org/2000/svg" xmlns:xlink="http://www.w3.org/1999/xlink" x="0px" y="0px"
	 viewBox="0 0 700 700" style="enable-background:new 0 0 700 700;" xml:space="preserve">
<path d="M555.5,310.8v-62.2H366.8v-49.3h106.4V13.4H226.8v185.9h106.4v49.3l-188.7,0v62.2H82.9v148.4h157.9V310.8h-62.7v-28.6
	l155.1,0v116.5H271v147.8H429V398.7h-62.2V282.2h155.1v28.6l-62.7,0v148.4h157.9V310.8L555.5,310.8z"/>
<g>
	<path d="M174.9,600.1v12.4h12v-12.4h7.3v32.4H187v-13.5h-12v13.5h-7.3v-32.4H174.9z"/>
	<path d="M213.8,632.5l-0.4-2.4h-0.1c-1.5,1.9-3.9,2.9-6.7,2.9c-4.8,0-7.6-3.5-7.6-7.2c0-6.1,5.5-9,13.8-9v-0.3c0-1.2-0.7-3-4.3-3
		c-2.4,0-4.9,0.8-6.5,1.8l-1.3-4.7c1.6-0.9,4.8-2.1,9.1-2.1c7.8,0,10.3,4.6,10.3,10.1v8.2c0,2.3,0.1,4.4,0.3,5.7H213.8z
		 M212.9,621.4c-3.8,0-6.8,0.9-6.8,3.7c0,1.9,1.2,2.8,2.9,2.8c1.8,0,3.3-1.2,3.8-2.7c0.1-0.4,0.1-0.8,0.1-1.2V621.4z"/>
	<path d="M225.8,616.7c0-3.5-0.1-5.7-0.2-7.7h6.3l0.2,4.3h0.2c1.2-3.4,4.1-4.8,6.3-4.8c0.7,0,1,0,1.5,0.1v6.9
		c-0.5-0.1-1.2-0.2-2-0.2c-2.7,0-4.5,1.4-5,3.7c-0.1,0.5-0.1,1.1-0.1,1.6v11.9h-7.3V616.7z"/>
	<path d="M266.4,598.4v27.1c0,2.6,0.1,5.4,0.2,7h-6.5l-0.3-3.5h-0.1c-1.5,2.6-4.3,4-7.3,4c-5.6,0-10-4.8-10-12
		c0-7.9,4.9-12.5,10.5-12.5c2.9,0,5.1,1,6.2,2.6h0.1v-12.7H266.4z M259.1,618.9c0-0.4,0-0.9-0.1-1.3c-0.4-2-2-3.6-4.3-3.6
		c-3.3,0-5,3-5,6.7c0,4,2,6.5,5,6.5c2.1,0,3.8-1.4,4.2-3.5c0.1-0.5,0.2-1.1,0.2-1.7V618.9z"/>
	<path d="M277.3,609l1.9,9.6c0.5,2.4,1,5,1.3,7.7h0.1c0.5-2.7,1.2-5.4,1.7-7.7l2.5-9.6h5.8l2.4,9.4c0.6,2.6,1.2,5.3,1.7,8h0.1
		c0.3-2.7,0.8-5.3,1.3-8l2-9.3h7.2l-7.2,23.5h-6.9l-2.2-8.3c-0.6-2.3-1-4.4-1.5-7.3h-0.1c-0.4,2.9-0.9,5.1-1.5,7.3l-2.4,8.3h-6.9
		l-6.8-23.5H277.3z"/>
	<path d="M321.7,632.5l-0.4-2.4h-0.1c-1.5,1.9-3.9,2.9-6.7,2.9c-4.8,0-7.6-3.5-7.6-7.2c0-6.1,5.5-9,13.8-9v-0.3c0-1.2-0.7-3-4.3-3
		c-2.4,0-4.9,0.8-6.5,1.8l-1.3-4.7c1.6-0.9,4.8-2.1,9.1-2.1c7.8,0,10.3,4.6,10.3,10.1v8.2c0,2.3,0.1,4.4,0.3,5.7H321.7z
		 M320.8,621.4c-3.8,0-6.8,0.9-6.8,3.7c0,1.9,1.2,2.8,2.9,2.8c1.8,0,3.3-1.2,3.8-2.7c0.1-0.4,0.1-0.8,0.1-1.2V621.4z"/>
	<path d="M333.7,616.7c0-3.5-0.1-5.7-0.2-7.7h6.3l0.2,4.3h0.2c1.2-3.4,4.1-4.8,6.3-4.8c0.7,0,1,0,1.5,0.1v6.9
		c-0.5-0.1-1.2-0.2-2-0.2c-2.7,0-4.5,1.4-5,3.7c-0.1,0.5-0.1,1.1-0.1,1.6v11.9h-7.3V616.7z"/>
	<path d="M357.2,623.1c0.2,3,3.2,4.5,6.6,4.5c2.5,0,4.5-0.3,6.5-1l1,4.9c-2.4,1-5.3,1.4-8.5,1.4c-8,0-12.5-4.6-12.5-12
		c0-6,3.7-12.5,11.9-12.5c7.6,0,10.5,5.9,10.5,11.7c0,1.2-0.1,2.4-0.2,2.9H357.2z M365.7,618.1c0-1.8-0.8-4.8-4.1-4.8
		c-3.1,0-4.3,2.8-4.5,4.8H365.7z"/>
	<path d="M414.2,620.1c-0.1-3.9-0.3-8.6-0.3-13.3h-0.1c-1,4.1-2.4,8.7-3.6,12.5l-3.9,12.6h-5.7l-3.5-12.5c-1.1-3.8-2.2-8.4-2.9-12.6
		H394c-0.2,4.4-0.3,9.4-0.6,13.4l-0.6,12.3h-6.8l2.1-32.4h9.7l3.2,10.8c1,3.7,2,7.8,2.7,11.6h0.1c0.9-3.7,2-8,3.1-11.6l3.5-10.8h9.6
		l1.8,32.4h-7.2L414.2,620.1z"/>
	<path d="M450.5,620.5c0,8.6-6.1,12.5-12.4,12.5c-6.9,0-12.1-4.5-12.1-12.1c0-7.6,5-12.4,12.5-12.4
		C445.7,608.5,450.5,613.4,450.5,620.5z M433.5,620.7c0,4,1.7,7.1,4.8,7.1c2.8,0,4.7-2.8,4.7-7.1c0-3.5-1.3-7.1-4.7-7.1
		C434.8,613.7,433.5,617.3,433.5,620.7z"/>
	<path d="M477.9,598.4v27.1c0,2.6,0.1,5.4,0.2,7h-6.5l-0.3-3.5h-0.1c-1.5,2.6-4.3,4-7.3,4c-5.6,0-10-4.8-10-12
		c0-7.9,4.9-12.5,10.5-12.5c2.9,0,5.1,1,6.2,2.6h0.1v-12.7H477.9z M470.6,618.9c0-0.4,0-0.9-0.1-1.3c-0.4-2-2-3.6-4.3-3.6
		c-3.3,0-5,3-5,6.7c0,4,2,6.5,5,6.5c2.1,0,3.8-1.4,4.2-3.5c0.1-0.5,0.2-1.1,0.2-1.7V618.9z"/>
	<path d="M489.4,623.1c0.2,3,3.2,4.5,6.6,4.5c2.5,0,4.5-0.3,6.5-1l1,4.9c-2.4,1-5.3,1.4-8.5,1.4c-8,0-12.5-4.6-12.5-12
		c0-6,3.7-12.5,11.9-12.5c7.6,0,10.5,5.9,10.5,11.7c0,1.2-0.1,2.4-0.2,2.9H489.4z M498,618.1c0-1.8-0.8-4.8-4.1-4.8
		c-3.1,0-4.3,2.8-4.5,4.8H498z"/>
	<path d="M509.1,598.4h7.3v34.1h-7.3V598.4z"/>
	<path d="M522.3,626.1c1.3,0.8,4.1,1.8,6.3,1.8c2.2,0,3.1-0.8,3.1-2c0-1.2-0.7-1.8-3.5-2.7c-4.8-1.6-6.7-4.3-6.7-7.1
		c0-4.4,3.7-7.7,9.6-7.7c2.7,0,5.2,0.6,6.6,1.3l-1.3,5c-1.1-0.6-3.1-1.3-5.1-1.3c-1.8,0-2.8,0.7-2.8,1.9c0,1.1,0.9,1.7,3.8,2.7
		c4.5,1.5,6.3,3.8,6.4,7.2c0,4.4-3.5,7.6-10.2,7.6c-3.1,0-5.8-0.7-7.6-1.6L522.3,626.1z"/>
</g>
</svg>
