<?xml version="1.0" encoding="utf-8"?>
<!-- Generator: Adobe Illustrator 26.3.1, SVG Export Plug-In . SVG Version: 6.00 Build 0)  -->
<svg version="1.1" id="Layer_1" xmlns="http://www.w3.org/2000/svg" xmlns:xlink="http://www.w3.org/1999/xlink" x="0px" y="0px"
	 viewBox="0 0 700 700" style="enable-background:new 0 0 700 700;" xml:space="preserve">
<path d="M280,253.8c0-4.8-3.9-8.7-8.8-8.8H113.8c-4.8,0-8.7,3.9-8.8,8.8V455h175V253.8z M154.9,383.5c-3.4,3.4-8.9,3.4-12.3,0
	c-3.4-3.4-3.4-8.9,0-12.3l37.1-37.1c3.4-3.4,9-3.4,12.4,0c3.4,3.4,3.4,9,0,12.4L154.9,383.5z M244.6,346.4l-37.1,37.1
	c-3.4,3.4-8.9,3.4-12.3,0c-3.4-3.4-3.4-8.9,0-12.3l37.1-37.1c3.4-3.4,9-3.4,12.4,0C248,337.4,248,343,244.6,346.4L244.6,346.4z"/>
<path d="M280,481.2v-8.8H105v8.8c0,4.8,3.9,8.7,8.8,8.8h157.5C276.1,490,280,486.1,280,481.2z"/>
<path d="M332.5,402.5h35V455h-35V402.5z"/>
<path d="M297.5,481.2c0,3-0.6,5.9-1.6,8.8H436c-1.8-5.1-5.2-9.5-9.6-12.7c-4.4-3.1-9.7-4.8-15.2-4.8H297.5L297.5,481.2z"/>
<path d="M490,332.5H297.5V385H490V332.5z M350.2,367.5c-4.8,0-8.8-3.9-8.8-8.7c0-4.8,3.9-8.8,8.7-8.8h0.1c4.8,0,8.8,3.9,8.8,8.8
	S355,367.5,350.2,367.5L350.2,367.5z"/>
<path d="M490,306.2c0-7,2.8-13.6,7.7-18.6c4.9-4.9,11.6-7.7,18.6-7.7H560V96.2c0-7-2.8-13.6-7.7-18.6c-4.9-4.9-11.6-7.7-18.6-7.7
	H166.2c-7,0-13.6,2.8-18.6,7.7c-4.9,4.9-7.7,11.6-7.7,18.6v131.2h131.2c3.7,0,7.4,0.8,10.8,2.4c0.1-0.2,0.3-0.5,0.5-0.7l86.6-86.6
	c1.6-1.7,3.9-2.6,6.2-2.6c2.3,0,4.6,0.9,6.2,2.6c1.6,1.6,2.6,3.9,2.6,6.2c0,2.3-0.9,4.6-2.6,6.2l-86.6,86.6
	c-0.1,0.1-0.3,0.2-0.4,0.3h0c1.9,3.7,3,7.8,3,11.9V315H490L490,306.2z M367.5,105h-35c-4.8,0-8.8-3.9-8.8-8.8s3.9-8.8,8.8-8.8h35
	c4.8,0,8.8,3.9,8.8,8.8S372.3,105,367.5,105z M434.9,154.9l-86.6,86.6v0c-3.4,3.4-8.9,3.4-12.4,0c-3.4-3.4-3.4-8.9,0-12.4l86.6-86.6
	c1.6-1.7,3.9-2.6,6.2-2.6c2.3,0,4.6,0.9,6.2,2.6c1.7,1.6,2.6,3.9,2.6,6.2C437.5,151.1,436.6,153.3,434.9,154.9L434.9,154.9z"/>
<path d="M507.5,481.2c0,4.8,3.9,8.7,8.8,8.8h70c4.8,0,8.7-3.9,8.8-8.8v-8.8h-87.5V481.2z"/>
<path d="M586.2,297.5h-70c-4.8,0-8.7,3.9-8.8,8.8V455H595V306.2C595,301.4,591.1,297.5,586.2,297.5z M569.8,370.1l-24.7,24.7
	c-3.4,3.4-9,3.4-12.4,0c-3.4-3.4-3.4-9,0-12.4l24.7-24.7c3.4-3.4,9-3.4,12.4,0C573.2,361.1,573.2,366.6,569.8,370.1z"/>
<g>
	<path d="M270.2,589.7c2.7-0.4,6.2-0.7,9.9-0.7c6.1,0,10.1,1.1,13.2,3.5c3.4,2.5,5.5,6.5,5.5,12.2c0,6.2-2.3,10.5-5.4,13.1
		c-3.4,2.8-8.6,4.2-14.9,4.2c-3.8,0-6.5-0.2-8.3-0.5V589.7z M277.5,616.1c0.6,0.1,1.6,0.1,2.5,0.1c6.6,0,10.9-3.6,10.9-11.3
		c0-6.7-3.9-10.3-10.2-10.3c-1.6,0-2.7,0.1-3.3,0.3V616.1z"/>
	<path d="M308.9,612.2c0.2,3,3.2,4.5,6.6,4.5c2.5,0,4.5-0.3,6.5-1l1,4.9c-2.4,1-5.3,1.4-8.5,1.4c-8,0-12.5-4.6-12.5-12
		c0-6,3.7-12.5,11.9-12.5c7.6,0,10.5,5.9,10.5,11.7c0,1.2-0.1,2.4-0.2,2.9H308.9z M317.5,607.2c0-1.8-0.8-4.8-4.1-4.8
		c-3.1,0-4.3,2.8-4.5,4.8H317.5z"/>
	<path d="M333.8,598.1L337,609c0.6,2,1,3.8,1.3,5.7h0.1c0.4-1.9,0.8-3.7,1.3-5.7l3-10.9h7.7l-8.7,23.5h-7.3l-8.5-23.5H333.8z"/>
	<path d="M361.4,591.6c0,2-1.5,3.6-3.9,3.6c-2.3,0-3.8-1.6-3.8-3.6c0-2.1,1.5-3.7,3.8-3.7C359.8,587.9,361.3,589.5,361.4,591.6z
		 M353.8,621.6v-23.5h7.3v23.5H353.8z"/>
	<path d="M384.6,621c-1.3,0.6-3.7,1.1-6.5,1.1c-7.6,0-12.4-4.6-12.4-12c0-6.9,4.7-12.5,13.4-12.5c1.9,0,4,0.3,5.6,0.9l-1.2,5.4
		c-0.9-0.4-2.2-0.7-4.1-0.7c-3.8,0-6.3,2.7-6.3,6.6c0,4.3,2.9,6.6,6.4,6.6c1.7,0,3.1-0.3,4.2-0.7L384.6,621z"/>
	<path d="M393.7,612.2c0.2,3,3.2,4.5,6.6,4.5c2.5,0,4.5-0.3,6.5-1l1,4.9c-2.4,1-5.3,1.4-8.5,1.4c-8,0-12.5-4.6-12.5-12
		c0-6,3.7-12.5,11.9-12.5c7.6,0,10.5,5.9,10.5,11.7c0,1.2-0.1,2.4-0.2,2.9H393.7z M402.3,607.2c0-1.8-0.8-4.8-4.1-4.8
		c-3.1,0-4.3,2.8-4.5,4.8H402.3z"/>
	<path d="M413.4,615.2c1.3,0.8,4.1,1.8,6.3,1.8c2.2,0,3.1-0.8,3.1-2c0-1.2-0.7-1.8-3.5-2.7c-4.8-1.6-6.7-4.3-6.7-7.1
		c0-4.4,3.7-7.7,9.6-7.7c2.7,0,5.2,0.6,6.6,1.3l-1.3,5c-1.1-0.6-3.1-1.3-5.1-1.3c-1.8,0-2.8,0.7-2.8,1.9c0,1.1,0.9,1.7,3.8,2.7
		c4.5,1.5,6.3,3.8,6.4,7.2c0,4.4-3.5,7.6-10.2,7.6c-3.1,0-5.8-0.7-7.6-1.6L413.4,615.2z"/>
</g>
</svg>
