<?xml version="1.0" encoding="utf-8"?>
<!-- Generator: Adobe Illustrator 26.3.1, SVG Export Plug-In . SVG Version: 6.00 Build 0)  -->
<svg version="1.1" id="Layer_1" xmlns="http://www.w3.org/2000/svg" xmlns:xlink="http://www.w3.org/1999/xlink" x="0px" y="0px"
	 viewBox="0 0 700 700" style="enable-background:new 0 0 700 700;" xml:space="preserve">
<path d="M559.7,410.6c5.4-8.6,8.7-18.9,8.7-29.8c0-27-19.3-49.7-44.8-54.9l0-23.5c0-18.5-15.1-33.6-33.6-33.6l-128.8,0v-33.6H406
	c18.5,0,33.6-15.1,33.6-33.6v-22.4c0-27.8-17-51.7-41-61.9c4.7-8.2,7.4-17.6,7.4-27.7c0-30.9-25.1-56-56-56c-30.9,0-56,25.1-56,56
	c0,10.1,2.7,19.5,7.4,27.7c-24.1,10.2-41,34.1-41,61.9v22.4c0,18.5,15.1,33.6,33.6,33.6h44.8v33.6H215.6
	c-18.5,0-33.6,15.1-33.6,33.6v23.5c-25.5,5.2-44.8,27.8-44.8,54.9c0,10.1,2.7,19.5,7.4,27.7c-24.1,10.2-41,34.1-41,61.9v22.4
	c0,18.5,15.1,33.6,33.6,33.6h112c8.6,0,16.4-3.3,22.4-8.6c5.9,5.3,13.8,8.6,22.4,8.6h112c8.6,0,16.4-3.3,22.4-8.6
	c5.9,5.3,13.8,8.6,22.4,8.6h112c18.5,0,33.6-15.1,33.6-33.6v-22.4C596.4,444.3,581.5,421.7,559.7,410.6L559.7,410.6z M546,380.8
	c0,18.5-15.1,33.6-33.6,33.6c-18.5,0-33.6-15.1-33.6-33.6c0-18.5,15.1-33.6,33.6-33.6C530.9,347.2,546,362.3,546,380.8z M350,56
	c18.5,0,33.6,15.1,33.6,33.6c0,18.5-15.1,33.6-33.6,33.6c-18.5,0-33.6-15.1-33.6-33.6C316.4,71.1,331.5,56,350,56z M294,212.8
	c-6.2,0-11.2-5-11.2-11.2v-22.4c0-21.4,15.1-39.3,35.2-43.7c9.1,6.4,20.1,10.1,32,10.1c11.9,0,22.9-3.8,32-10.1
	c20.1,4.4,35.2,22.3,35.2,43.7v22.4c0,6.2-5,11.2-11.2,11.2L294,212.8z M350,347.2c18.5,0,33.6,15.1,33.6,33.6
	c0,18.5-15.1,33.6-33.6,33.6c-18.5,0-33.6-15.1-33.6-33.6C316.4,362.3,331.5,347.2,350,347.2z M193.2,347.2
	c18.5,0,33.6,15.1,33.6,33.6c0,18.5-15.1,33.6-33.6,33.6c-18.5,0-33.6-15.1-33.6-33.6C159.6,362.3,174.7,347.2,193.2,347.2z
	 M260.4,492.8c0,6.2-5,11.2-11.2,11.2h-112c-6.2,0-11.2-5-11.2-11.2v-22.4c0-21.4,15.1-39.3,35.2-43.7c9.1,6.4,20.1,10.1,32,10.1
	c11.9,0,22.9-3.8,32-10.1c20.1,4.4,35.2,22.3,35.2,43.7L260.4,492.8z M271.6,433.3c-7.3-10.9-17.6-19.7-29.8-24.8
	c4.7-8.2,7.4-17.6,7.4-27.7c0-27-19.3-49.7-44.8-54.9v-23.5c0-6.2,5-11.2,11.2-11.2h123.2v34.7c-25.5,5.2-44.8,27.8-44.8,54.9
	c0,10.1,2.7,19.5,7.4,27.7C289.2,413.7,278.8,422.4,271.6,433.3L271.6,433.3z M417.2,492.8c0,6.2-5,11.2-11.2,11.2H294
	c-6.2,0-11.2-5-11.2-11.2v-22.4c0-21.4,15.1-39.3,35.2-43.7c9.1,6.4,20.1,10.1,32,10.1c11.9,0,22.9-3.8,32-10.1
	c20.1,4.4,35.2,22.3,35.2,43.7L417.2,492.8z M428.4,433.3c-7.3-10.9-17.6-19.7-29.8-24.8c4.7-8.2,7.4-17.6,7.4-27.7
	c0-27-19.3-49.7-44.8-54.9v-34.7H490c6.2,0,11.2,5,11.2,11.2v23.5c-25.5,5.2-44.8,27.8-44.8,54.9c0,9.4,2.3,18.2,6.4,26
	C448.6,411.6,436.5,421.1,428.4,433.3L428.4,433.3z M574,492.8c0,6.2-5,11.2-11.2,11.2h-112c-6.2,0-11.2-5-11.2-11.2v-22.4
	c0-23,17.4-42,39.7-44.5c9.3,6.8,20.7,10.9,33.1,10.9c11.2,0,21.6-3.4,30.4-9.1c18,5.8,31.2,22.7,31.2,42.7L574,492.8z"/>
<g>
	<path d="M221.4,581.8c2.7-0.4,6.2-0.7,9.9-0.7c6.1,0,10.1,1.1,13.2,3.5c3.4,2.5,5.5,6.5,5.5,12.2c0,6.2-2.3,10.5-5.4,13.1
		c-3.4,2.8-8.6,4.2-14.9,4.2c-3.8,0-6.5-0.2-8.3-0.5V581.8z M228.7,608.2c0.6,0.1,1.6,0.1,2.5,0.1c6.6,0,10.9-3.6,10.9-11.3
		c0-6.7-3.9-10.3-10.2-10.3c-1.6,0-2.7,0.1-3.3,0.3V608.2z"/>
	<path d="M260.1,604.3c0.2,3,3.2,4.5,6.6,4.5c2.5,0,4.5-0.3,6.5-1l1,4.9c-2.4,1-5.3,1.4-8.5,1.4c-8,0-12.5-4.6-12.5-12
		c0-6,3.7-12.5,11.9-12.5c7.6,0,10.5,5.9,10.5,11.7c0,1.2-0.1,2.4-0.2,2.9H260.1z M268.7,599.3c0-1.8-0.8-4.8-4.1-4.8
		c-3.1,0-4.3,2.8-4.5,4.8H268.7z"/>
	<path d="M279.9,598.1c0-3.1-0.1-5.7-0.2-7.9h6.3l0.3,3.3h0.1c1.7-2.5,4.4-3.8,7.8-3.8c5.1,0,9.7,4.5,9.7,12
		c0,8.5-5.4,12.6-10.7,12.6c-2.8,0-5-1.2-6.1-2.7h-0.1v11.7h-7.3V598.1z M287.2,603.6c0,0.6,0,1.1,0.1,1.5c0.5,2,2.2,3.5,4.3,3.5
		c3.2,0,5-2.6,5-6.6c0-3.7-1.7-6.6-4.9-6.6c-2.1,0-3.9,1.5-4.4,3.7c-0.1,0.4-0.1,0.9-0.1,1.3V603.6z"/>
	<path d="M321.9,613.7l-0.4-2.4h-0.1c-1.5,1.9-3.9,2.9-6.7,2.9c-4.8,0-7.6-3.5-7.6-7.2c0-6.1,5.5-9,13.8-9v-0.3c0-1.2-0.7-3-4.3-3
		c-2.4,0-4.9,0.8-6.5,1.8l-1.3-4.7c1.6-0.9,4.8-2.1,9.1-2.1c7.8,0,10.3,4.6,10.3,10.1v8.2c0,2.3,0.1,4.4,0.3,5.7H321.9z
		 M321.1,602.6c-3.8,0-6.8,0.9-6.8,3.7c0,1.9,1.2,2.8,2.9,2.8c1.8,0,3.3-1.2,3.8-2.7c0.1-0.4,0.1-0.8,0.1-1.2V602.6z"/>
	<path d="M333.9,598c0-3.5-0.1-5.7-0.2-7.7h6.3l0.2,4.3h0.2c1.2-3.4,4.1-4.8,6.3-4.8c0.7,0,1,0,1.5,0.1v6.9c-0.5-0.1-1.2-0.2-2-0.2
		c-2.7,0-4.5,1.4-5,3.7c-0.1,0.5-0.1,1.1-0.1,1.6v11.9h-7.3V598z"/>
	<path d="M361.3,583.5v6.7h5.2v5.4h-5.2v8.5c0,2.8,0.7,4.1,2.9,4.1c0.9,0,1.6-0.1,2.2-0.2l0,5.5c-1,0.4-2.7,0.6-4.8,0.6
		c-2.4,0-4.3-0.8-5.5-2c-1.3-1.4-2-3.6-2-7v-9.6h-3.1v-5.4h3.1v-5.1L361.3,583.5z"/>
	<path d="M370.8,597.7c0-2.9-0.1-5.4-0.2-7.5h6.1l0.3,3.2h0.1c1-1.5,3.1-3.7,7.1-3.7c3,0,5.4,1.5,6.4,4h0.1c0.9-1.2,1.9-2.2,3-2.8
		c1.3-0.8,2.7-1.2,4.5-1.2c4.5,0,7.9,3.2,7.9,10.2v13.8h-7.1V601c0-3.4-1.1-5.4-3.5-5.4c-1.7,0-2.9,1.2-3.4,2.5
		c-0.2,0.5-0.3,1.3-0.3,1.9v13.7h-7.1v-13.2c0-3-1.1-5-3.4-5c-1.9,0-3,1.4-3.4,2.6c-0.2,0.6-0.3,1.2-0.3,1.8v13.7h-7.1V597.7z"/>
	<path d="M417.7,604.3c0.2,3,3.2,4.5,6.6,4.5c2.5,0,4.5-0.3,6.5-1l1,4.9c-2.4,1-5.3,1.4-8.5,1.4c-8,0-12.5-4.6-12.5-12
		c0-6,3.7-12.5,11.9-12.5c7.6,0,10.5,5.9,10.5,11.7c0,1.2-0.1,2.4-0.2,2.9H417.7z M426.3,599.3c0-1.8-0.8-4.8-4.1-4.8
		c-3.1,0-4.3,2.8-4.5,4.8H426.3z"/>
	<path d="M437.4,597.7c0-2.9-0.1-5.4-0.2-7.5h6.3l0.3,3.2h0.1c1-1.5,3.4-3.7,7.2-3.7c4.8,0,8.4,3.2,8.4,10.1v13.9h-7.3v-13
		c0-3-1.1-5.1-3.7-5.1c-2,0-3.2,1.4-3.7,2.7c-0.2,0.4-0.3,1.2-0.3,1.8v13.5h-7.3V597.7z"/>
	<path d="M473.4,583.5v6.7h5.2v5.4h-5.2v8.5c0,2.8,0.7,4.1,2.9,4.1c0.9,0,1.6-0.1,2.2-0.2l0,5.5c-1,0.4-2.7,0.6-4.8,0.6
		c-2.4,0-4.3-0.8-5.5-2c-1.3-1.4-2-3.6-2-7v-9.6h-3.1v-5.4h3.1v-5.1L473.4,583.5z"/>
</g>
</svg>
