<?xml version="1.0" encoding="utf-8"?>
<!-- Generator: Adobe Illustrator 26.3.1, SVG Export Plug-In . SVG Version: 6.00 Build 0)  -->
<svg version="1.1" id="Layer_1" xmlns="http://www.w3.org/2000/svg" xmlns:xlink="http://www.w3.org/1999/xlink" x="0px" y="0px"
	 viewBox="0 0 700 700" style="enable-background:new 0 0 700 700;" xml:space="preserve">
<style type="text/css">
	.st0{fill:none;}
	.st1{enable-background:new    ;}
</style>
<g>
	<path d="M227.5,262.5h245c3.3,0,6.5-0.9,9.3-2.6s5-4.2,6.5-7.2c1.3-2.8,1.7-5.9,1.4-9c-0.3-3.1-1.5-6-3.3-8.5L363.8,77.7
		c-3.3-4.3-8.4-6.8-13.8-6.8s-10.5,2.5-13.8,6.8L213.7,235.2c-1.8,2.5-3,5.4-3.3,8.5s0.1,6.2,1.4,9c1.4,2.9,3.7,5.4,6.5,7.2
		C221,261.6,224.2,262.5,227.5,262.5L227.5,262.5z M350,116l87.5,111.5h-175L350,116z"/>
	<path d="M315,280H140c-4.6,0-9.1,1.8-12.4,5.1s-5.1,7.7-5.1,12.4v175c0,4.6,1.8,9.1,5.1,12.4s7.7,5.1,12.4,5.1h175
		c4.6,0,9.1-1.8,12.4-5.1s5.1-7.7,5.1-12.4v-175c0-4.6-1.8-9.1-5.1-12.4S319.6,280,315,280z M297.5,455h-140V315h140V455z"/>
	<path d="M472.5,280c-27.8,0-54.6,11.1-74.2,30.8s-30.8,46.4-30.8,74.2s11.1,54.6,30.8,74.2s46.4,30.8,74.2,30.8
		s54.6-11.1,74.2-30.8s30.8-46.4,30.8-74.2s-11.1-54.6-30.8-74.2S500.3,280,472.5,280L472.5,280z M472.5,455
		c-18.6,0-36.4-7.4-49.5-20.5s-20.5-30.9-20.5-49.5s7.4-36.4,20.5-49.5s30.9-20.5,49.5-20.5s36.4,7.4,49.5,20.5
		c13.1,13.1,20.5,30.9,20.5,49.5s-7.4,36.4-20.5,49.5C508.9,447.6,491.1,455,472.5,455L472.5,455z"/>
</g>
<rect x="153" y="578" class="st0" width="413" height="77"/>
<g class="st1">
	<path d="M225.1,585.1c2.7-0.4,6.2-0.7,9.9-0.7c6.1,0,10.1,1.1,13.2,3.5c3.4,2.5,5.5,6.5,5.5,12.2c0,6.2-2.3,10.5-5.4,13.1
		c-3.4,2.8-8.6,4.2-14.9,4.2c-3.8,0-6.5-0.2-8.3-0.5V585.1z M232.4,611.5c0.6,0.1,1.6,0.1,2.5,0.1c6.6,0,10.9-3.6,10.9-11.3
		c0-6.7-3.9-10.3-10.2-10.3c-1.6,0-2.7,0.1-3.3,0.3V611.5z"/>
	<path d="M263.9,607.6c0.2,3,3.2,4.5,6.6,4.5c2.5,0,4.5-0.3,6.5-1l1,4.9c-2.4,1-5.3,1.4-8.5,1.4c-8,0-12.5-4.6-12.5-12
		c0-6,3.7-12.5,11.9-12.5c7.6,0,10.5,5.9,10.5,11.7c0,1.2-0.1,2.4-0.2,2.9H263.9z M272.5,602.6c0-1.8-0.8-4.8-4.1-4.8
		c-3.1,0-4.3,2.8-4.5,4.8H272.5z"/>
	<path d="M288.7,593.5l3.2,10.9c0.6,2,1,3.8,1.3,5.7h0.1c0.4-1.9,0.8-3.7,1.3-5.7l3-10.9h7.7l-8.7,23.5h-7.3l-8.5-23.5H288.7z"/>
	<path d="M316.3,587c0,2-1.5,3.6-3.9,3.6c-2.3,0-3.8-1.6-3.8-3.6c0-2.1,1.5-3.7,3.8-3.7C314.7,583.3,316.2,584.9,316.3,587z
		 M308.7,617v-23.5h7.3V617H308.7z"/>
	<path d="M339.5,616.4c-1.3,0.6-3.7,1.1-6.5,1.1c-7.6,0-12.4-4.6-12.4-12c0-6.9,4.7-12.5,13.4-12.5c1.9,0,4,0.3,5.6,0.9l-1.2,5.4
		c-0.9-0.4-2.2-0.7-4.1-0.7c-3.8,0-6.3,2.7-6.3,6.6c0,4.3,2.9,6.6,6.4,6.6c1.7,0,3.1-0.3,4.2-0.7L339.5,616.4z"/>
	<path d="M348.6,607.6c0.2,3,3.2,4.5,6.6,4.5c2.5,0,4.5-0.3,6.5-1l1,4.9c-2.4,1-5.3,1.4-8.5,1.4c-8,0-12.5-4.6-12.5-12
		c0-6,3.7-12.5,11.9-12.5c7.6,0,10.5,5.9,10.5,11.7c0,1.2-0.1,2.4-0.2,2.9H348.6z M357.2,602.6c0-1.8-0.8-4.8-4.1-4.8
		c-3.1,0-4.3,2.8-4.5,4.8H357.2z"/>
	<path d="M382.7,590.8H374v-6.1h24.9v6.1H390V617h-7.3V590.8z"/>
	<path d="M405.5,593.5l3.5,11.5c0.4,1.4,0.9,3.1,1.2,4.4h0.1c0.3-1.2,0.7-3,1.1-4.4l2.9-11.5h7.8l-5.5,15.5
		c-3.4,9.3-5.6,13.1-8.3,15.4c-2.5,2.2-5.2,3-7.1,3.2l-1.5-6.2c0.9-0.1,2.1-0.6,3.2-1.2c1.1-0.6,2.3-1.7,3-2.9
		c0.2-0.3,0.4-0.7,0.4-1.1c0-0.2,0-0.6-0.3-1.2l-8.6-21.5H405.5z"/>
	<path d="M425.1,601.4c0-3.1-0.1-5.7-0.2-7.9h6.3l0.3,3.3h0.1c1.7-2.5,4.4-3.8,7.8-3.8c5.1,0,9.7,4.5,9.7,12
		c0,8.5-5.4,12.6-10.7,12.6c-2.8,0-5-1.2-6.1-2.7h-0.1v11.7h-7.3V601.4z M432.4,606.9c0,0.6,0,1.1,0.1,1.5c0.5,2,2.2,3.5,4.3,3.5
		c3.2,0,5-2.6,5-6.6c0-3.7-1.7-6.6-4.9-6.6c-2.1,0-3.9,1.5-4.4,3.7c-0.1,0.4-0.1,0.9-0.1,1.3V606.9z"/>
	<path d="M459.6,607.6c0.2,3,3.2,4.5,6.6,4.5c2.5,0,4.5-0.3,6.5-1l1,4.9c-2.4,1-5.3,1.4-8.5,1.4c-8,0-12.5-4.6-12.5-12
		c0-6,3.7-12.5,11.9-12.5c7.6,0,10.5,5.9,10.5,11.7c0,1.2-0.1,2.4-0.2,2.9H459.6z M468.2,602.6c0-1.8-0.8-4.8-4.1-4.8
		c-3.1,0-4.3,2.8-4.5,4.8H468.2z"/>
</g>
</svg>
