<?xml version="1.0" encoding="utf-8"?>
<!-- Generator: Adobe Illustrator 26.3.1, SVG Export Plug-In . SVG Version: 6.00 Build 0)  -->
<svg version="1.1" id="Layer_1" xmlns="http://www.w3.org/2000/svg" xmlns:xlink="http://www.w3.org/1999/xlink" x="0px" y="0px"
	 viewBox="0 0 700 700" style="enable-background:new 0 0 700 700;" xml:space="preserve">
<path d="M318.1,350h131.6v15.7H318.1V350z"/>
<path d="M520.8,296.8h-15.7V166.3c0-16.2-13.4-29.1-29.1-29.1H224.6c-16.2,0-29.1,13.4-29.1,29.1l0,113.7h-15.7V166.3
	c0-25.2,20.2-45.4,45.4-45.4h251.4c25.2,0,45.4,20.2,45.4,45.4v130.5H520.8z"/>
<path d="M408.2,437.4H286.7v-15.7h121.5c1.7,0,2.2-1.1,2.8-1.7c0.6-0.6,1.1-1.7,0.6-3.4l-19.6-56l15.1-5l19.6,56
	c2.2,6.2,1.1,12.3-2.2,17.4C420.6,434.6,414.4,437.4,408.2,437.4L408.2,437.4z"/>
<path d="M300.7,437.4H157.9c-14,0-25.2-11.2-25.2-25.2l0-115.4c0-14,11.2-25.2,25.2-25.2h142.8c14,0,25.2,11.2,25.2,25.2v115.4
	C325.9,426.2,314.7,437.4,300.7,437.4L300.7,437.4z M157.9,287.8c-5,0-9,3.9-9,9v115.4c0,5,3.9,9,9,9h142.8c5,0,9-3.9,9-9l0-115.4
	c0-5-3.9-9-9-9L157.9,287.8z"/>
<path d="M511.8,439H462c-12.3,0-22.4-10.1-22.4-22.4V306.3c0-12.3,10.1-22.4,22.4-22.4h49.8c12.3,0,22.4,10.1,22.4,22.4v109.8
	C534.2,429,524.2,439,511.8,439L511.8,439z M462,299.6c-3.9,0-6.7,2.8-6.7,6.7v109.8c0,3.9,2.8,6.7,6.7,6.7h49.8
	c3.9,0,6.7-2.8,6.7-6.7V306.3c0-3.9-2.8-6.7-6.7-6.7H462z"/>
<path d="M523.6,411.6h-76.7c-4.5,0-7.8-3.4-7.8-7.8s3.4-7.8,7.8-7.8h76.7c4.5,0,7.8,3.4,7.8,7.8
	C531.4,408.2,528.1,411.6,523.6,411.6z"/>
<g>
	<path d="M270.2,585.6c2.7-0.4,6.2-0.7,9.9-0.7c6.1,0,10.1,1.1,13.2,3.5c3.4,2.5,5.5,6.5,5.5,12.2c0,6.2-2.3,10.5-5.4,13.1
		c-3.4,2.8-8.6,4.2-14.9,4.2c-3.8,0-6.5-0.2-8.3-0.5V585.6z M277.5,612c0.6,0.1,1.6,0.1,2.5,0.1c6.6,0,10.9-3.6,10.9-11.3
		c0-6.7-3.9-10.3-10.2-10.3c-1.6,0-2.7,0.1-3.3,0.3V612z"/>
	<path d="M308.9,608.1c0.2,3,3.2,4.5,6.6,4.5c2.5,0,4.5-0.3,6.5-1l1,4.9c-2.4,1-5.3,1.4-8.5,1.4c-8,0-12.5-4.6-12.5-12
		c0-6,3.7-12.5,11.9-12.5c7.6,0,10.5,5.9,10.5,11.7c0,1.2-0.1,2.4-0.2,2.9H308.9z M317.5,603.1c0-1.8-0.8-4.8-4.1-4.8
		c-3.1,0-4.3,2.8-4.5,4.8H317.5z"/>
	<path d="M333.8,594l3.2,10.9c0.6,2,1,3.8,1.3,5.7h0.1c0.4-1.9,0.8-3.7,1.3-5.7l3-10.9h7.7l-8.7,23.5h-7.3l-8.5-23.5H333.8z"/>
	<path d="M361.4,587.5c0,2-1.5,3.6-3.9,3.6c-2.3,0-3.8-1.6-3.8-3.6c0-2.1,1.5-3.7,3.8-3.7C359.8,583.8,361.3,585.4,361.4,587.5z
		 M353.8,617.5V594h7.3v23.5H353.8z"/>
	<path d="M384.6,616.9c-1.3,0.6-3.7,1.1-6.5,1.1c-7.6,0-12.4-4.6-12.4-12c0-6.9,4.7-12.5,13.4-12.5c1.9,0,4,0.3,5.6,0.9l-1.2,5.4
		c-0.9-0.4-2.2-0.7-4.1-0.7c-3.8,0-6.3,2.7-6.3,6.6c0,4.3,2.9,6.6,6.4,6.6c1.7,0,3.1-0.3,4.2-0.7L384.6,616.9z"/>
	<path d="M393.7,608.1c0.2,3,3.2,4.5,6.6,4.5c2.5,0,4.5-0.3,6.5-1l1,4.9c-2.4,1-5.3,1.4-8.5,1.4c-8,0-12.5-4.6-12.5-12
		c0-6,3.7-12.5,11.9-12.5c7.6,0,10.5,5.9,10.5,11.7c0,1.2-0.1,2.4-0.2,2.9H393.7z M402.3,603.1c0-1.8-0.8-4.8-4.1-4.8
		c-3.1,0-4.3,2.8-4.5,4.8H402.3z"/>
	<path d="M413.4,611.1c1.3,0.8,4.1,1.8,6.3,1.8c2.2,0,3.1-0.8,3.1-2c0-1.2-0.7-1.8-3.5-2.7c-4.8-1.6-6.7-4.3-6.7-7.1
		c0-4.4,3.7-7.7,9.6-7.7c2.7,0,5.2,0.6,6.6,1.3l-1.3,5c-1.1-0.6-3.1-1.3-5.1-1.3c-1.8,0-2.8,0.7-2.8,1.9c0,1.1,0.9,1.7,3.8,2.7
		c4.5,1.5,6.3,3.8,6.4,7.2c0,4.4-3.5,7.6-10.2,7.6c-3.1,0-5.8-0.7-7.6-1.6L413.4,611.1z"/>
</g>
</svg>
