<?xml version="1.0" encoding="utf-8"?>
<!-- Generator: Adobe Illustrator 26.3.1, SVG Export Plug-In . SVG Version: 6.00 Build 0)  -->
<svg version="1.1" id="Layer_1" xmlns="http://www.w3.org/2000/svg" xmlns:xlink="http://www.w3.org/1999/xlink" x="0px" y="0px"
	 viewBox="0 0 700 700" style="enable-background:new 0 0 700 700;" xml:space="preserve">
<style type="text/css">
	.st0{enable-background:new    ;}
</style>
<g id="Layer_1_00000172398028119414163790000016913847669786770360_">
	<path d="M587.9,203.2c21.5-21.5,33.3-50.1,33.3-80.7c0-62.7-51-113.8-113.8-113.8c-34,0-66,15.3-87.5,41.3l-13-13l-21.5,10.8
		c-12.3-7.2-25.4-12.6-39-16.2l-7.6-22.8h-65.1l-7.6,22.8c-13.7,3.6-26.8,9-39,16.2L205.5,37l-46,46l10.8,21.5
		c-7.2,12.3-12.6,25.4-16.2,39l-22.8,7.6v65.1l22.8,7.6c3.6,13.7,9,26.8,16.2,39l-10.8,21.5l46,46l21.5-10.8
		c12.3,7.2,25.4,12.6,39,16.2l7.6,22.8h65.1l7.6-22.8c13.7-3.6,26.8-9,39-16.2l21.5,10.8l23.6-23.6c2.7,7.1,8.5,12.7,15.7,15.2V475
		l40.4,64.7c4.5,7.2,12.3,11.5,20.8,11.5c8.5,0,16.3-4.3,20.8-11.5l40.4-64.7V322.1c10.2-3.6,17.5-13.2,17.5-24.6
		c0-6.7-2.6-12.8-6.8-17.5c4.2-4.7,6.8-10.8,6.8-17.5c0-11.2-7.1-20.7-17-24.5c1.5-11.9,6.9-23,15.5-31.6L587.9,203.2z M403.5,309.2
		l-19-9.5l-4.2,2.6c-13.2,8.3-27.6,14.3-42.7,17.7l-4.8,1.1l-6.7,20.1h-39.9l-6.7-20.1l-4.8-1.1c-15.1-3.5-29.5-9.4-42.7-17.7
		l-4.2-2.6l-19,9.5l-28-28.2l9.5-19l-2.6-4.2c-8.3-13.2-14.3-27.6-17.7-42.7l-1.1-4.8l-20.1-6.7v-39.9l20.1-6.7l1.1-4.8
		c3.5-15.1,9.4-29.5,17.7-42.7l2.6-4.2l-9.5-19l28.2-28l19,9.5l4.2-2.6c13.2-8.3,27.6-14.3,42.7-17.7l4.8-1.1l6.7-20.1h39.9
		l6.7,20.1l4.8,1.1c15.1,3.5,29.5,9.4,42.7,17.7l4.2,2.6l19-9.5l28.2,28.2l-9.5,19l2.6,4.2c8.3,13.2,14.3,27.6,17.7,42.7l1.1,4.8
		l20.1,6.7v39.9l-20.1,6.7l-1.1,4.8c-3.5,15.1-9.4,29.5-17.7,42.7l-2.6,4.2l9.5,19L403.5,309.2z M560,253.7c4.8,0,8.8,3.9,8.8,8.8
		s-3.9,8.8-8.8,8.8H446.4l-4.2-8.3c1.8-3,3.4-6.1,5-9.2L560,253.7z M475.1,218.3l4,17.9h-24.5c1.4-4.1,2.8-8.2,3.9-12.3L475.1,218.3
		z M518,236.2h-21l-15.8-71v-14.1l-22.8-7.6c-1.2-4.7-2.8-9.4-4.5-14l20.6-29.7l33,24.7l32.5-24.4l18.2,30.4l-23.9,31.8L518,236.2z
		 M533.8,449.6V323.7h17.5v134.6L533.8,449.6z M516.2,451.4l-8.8,8.8l-8.8-8.8V323.7h17.5L516.2,451.4L516.2,451.4z M481.2,449.6
		l-17.5,8.8V323.7h17.5V449.6z M513.5,530.4c-2.6,4.1-9.3,4.1-11.9,0l-34-54.4l20.8-10.4l19.2,19.2l19.2-19.2l20.8,10.4L513.5,530.4
		z M560,306.2H455c-4.8,0-8.8-3.9-8.8-8.8v-6.3l2.5-2.5H560c4.8,0,8.8,3.9,8.8,8.8S564.8,306.2,560,306.2L560,306.2z M572.4,194
		c-11.5,11.5-18.6,26.3-20.5,42.2H536l14.7-66.3l28.6-38.2l-34.3-57l-37.5,28.1l-37-27.8l-24.8,35.8c-1.1-2.1-2.2-4.2-3.4-6.3
		L453,83l-20.5-20.6c18.2-22.7,45.7-36.2,75-36.2c53.1,0,96.2,43.2,96.2,96.5c0,25.7-10,49.9-28.2,68.1L572.4,194z"/>
	<path d="M306.2,61.2c-67.6,0-122.5,54.9-122.5,122.5s54.9,122.5,122.5,122.5s122.5-54.9,122.5-122.5S373.8,61.2,306.2,61.2z
		 M306.2,288.8c-57.9,0-105-47.1-105-105s47.1-105,105-105s105,47.1,105,105S364.1,288.8,306.2,288.8z"/>
	<path d="M362.8,163.6l-94.2-39.3c-2.9-1.2-5.9-1.8-9-1.8c-12.9,0-23.3,10.5-23.3,23.3v75.8c0,12.9,10.5,23.3,23.3,23.3
		c3.1,0,6.1-0.6,9-1.8l94.2-39.3c8.2-3.4,13.4-11.3,13.4-20.2S371,167,362.8,163.6L362.8,163.6z M356.1,187.8l-94.2,39.3
		c-3.6,1.5-8.1-1.4-8.1-5.4v-75.8c0-3.2,2.6-5.8,5.8-5.8c0.8,0,1.5,0.1,2.2,0.4l94.2,39.3c1.6,0.7,2.7,2.3,2.7,4
		S357.7,187.1,356.1,187.8L356.1,187.8z"/>
	<path d="M341.2,533.8h-17.5v-105h-70v105h-17.5v-175h-70v175h-17.5v-210h-70v227.5h332.5V393.8h-70V533.8z M131.2,533.8h-35V341.2
		h35V533.8z M271.2,446.2h35v87.5h-35V446.2z M183.8,376.2h35v157.5h-35V376.2z M358.8,411.2h35v122.5h-35V411.2z"/>
</g>
<g class="st0">
	<path d="M221.9,630.6h-11.1v8.4h12.4v6.5h-19.3v-35.2h18.6v6.5h-11.8v7.3h11.1V630.6z"/>
	<path d="M227.6,628.1c0-3.2-0.1-5.9-0.2-8.1h5.7l0.3,3.4h0.1c0.9-1.6,2.9-4,6.6-4c2.8,0,5.1,1.7,6,4.3h0.1c0.8-1.3,1.8-2.3,2.8-3.1
		c1.2-0.8,2.6-1.3,4.2-1.3c4.2,0,7.4,3.4,7.4,11.1v15h-6.6v-13.9c0-3.7-1-5.8-3.2-5.8c-1.6,0-2.7,1.3-3.1,2.8
		c-0.2,0.6-0.3,1.4-0.3,2v14.9h-6.6v-14.3c0-3.2-1-5.4-3.1-5.4c-1.7,0-2.8,1.6-3.2,2.9c-0.2,0.6-0.3,1.4-0.3,2v14.9h-6.6V628.1z"/>
	<path d="M266.1,628.5c0-3.3-0.1-6.2-0.2-8.6h5.9l0.3,3.5h0.1c1.6-2.7,4.1-4.1,7.3-4.1c4.8,0,9.1,4.9,9.1,13
		c0,9.3-5.1,13.7-9.9,13.7c-2.6,0-4.7-1.3-5.7-2.9h-0.1v12.7h-6.8V628.5z M272.9,634.5c0,0.6,0,1.2,0.1,1.7c0.4,2.1,2,3.8,4,3.8
		c3,0,4.7-2.9,4.7-7.2c0-4.1-1.6-7.2-4.6-7.2c-1.9,0-3.6,1.7-4.1,4c-0.1,0.4-0.1,0.9-0.1,1.4V634.5z"/>
	<path d="M292.9,608.4h6.8v37.1h-6.8V608.4z"/>
	<path d="M326.8,632.4c0,9.3-5.7,13.6-11.6,13.6c-6.4,0-11.3-4.9-11.3-13.2c0-8.2,4.7-13.5,11.7-13.5
		C322.4,619.4,326.8,624.7,326.8,632.4z M311,632.7c0,4.4,1.6,7.7,4.5,7.7c2.6,0,4.3-3.1,4.3-7.7c0-3.8-1.3-7.7-4.3-7.7
		C312.2,625,311,628.9,311,632.7z"/>
	<path d="M335.8,619.9l3.3,12.5c0.4,1.5,0.8,3.4,1.1,4.7h0.1c0.3-1.4,0.7-3.3,1-4.7l2.7-12.5h7.3l-5.1,16.8
		c-3.1,10.1-5.2,14.2-7.7,16.8c-2.4,2.4-4.9,3.2-6.6,3.5l-1.4-6.7c0.9-0.2,1.9-0.6,3-1.4c1-0.6,2.1-1.9,2.8-3.2
		c0.2-0.4,0.4-0.8,0.4-1.1c0-0.3,0-0.7-0.3-1.3l-8-23.3H335.8z"/>
	<path d="M358.6,635.2c0.2,3.3,3,4.9,6.2,4.9c2.3,0,4.2-0.4,6-1l0.9,5.4c-2.2,1-5,1.6-7.9,1.6c-7.4,0-11.7-5-11.7-13
		c0-6.5,3.4-13.6,11.1-13.6c7.1,0,9.8,6.4,9.8,12.7c0,1.4-0.1,2.6-0.2,3.1H358.6z M366.7,629.8c0-1.9-0.7-5.2-3.9-5.2
		c-2.9,0-4,3-4.2,5.2H366.7z"/>
	<path d="M382.3,635.2c0.2,3.3,3,4.9,6.2,4.9c2.3,0,4.2-0.4,6-1l0.9,5.4c-2.2,1-5,1.6-7.9,1.6c-7.4,0-11.7-5-11.7-13
		c0-6.5,3.4-13.6,11.1-13.6c7.1,0,9.8,6.4,9.8,12.7c0,1.4-0.1,2.6-0.2,3.1H382.3z M390.3,629.8c0-1.9-0.7-5.2-3.9-5.2
		c-2.9,0-4,3-4.2,5.2H390.3z"/>
	<path d="M410,610.8c2.2-0.4,5.5-0.7,9.1-0.7c4.5,0,7.6,0.8,9.8,2.8c1.8,1.7,2.8,4.1,2.8,7.4c0,4.5-2.7,7.6-5.3,8.7v0.2
		c2.1,1,3.3,3.3,4,6.6c0.9,4,1.9,8.6,2.5,9.9h-7c-0.5-1-1.2-3.9-2.1-8.2c-0.8-4.4-2.1-5.6-4.9-5.6h-2.1v13.8H410V610.8z
		 M416.7,625.9h2.7c3.4,0,5.4-2,5.4-5.1c0-3.2-1.9-4.9-5-4.9c-1.7,0-2.6,0.2-3.1,0.3V625.9z"/>
	<path d="M457.9,632.4c0,9.3-5.7,13.6-11.5,13.6c-6.4,0-11.3-4.9-11.3-13.2c0-8.2,4.7-13.5,11.7-13.5
		C453.4,619.4,457.9,624.7,457.9,632.4z M442.1,632.7c0,4.4,1.6,7.7,4.5,7.7c2.6,0,4.3-3.1,4.3-7.7c0-3.8-1.3-7.7-4.3-7.7
		C443.3,625,442.1,628.9,442.1,632.7z"/>
	<path d="M462.1,608.4h6.8v37.1h-6.8V608.4z"/>
	<path d="M479.7,635.2c0.2,3.3,3,4.9,6.2,4.9c2.3,0,4.2-0.4,6-1l0.9,5.4c-2.2,1-5,1.6-7.9,1.6c-7.4,0-11.7-5-11.7-13
		c0-6.5,3.4-13.6,11.1-13.6c7.1,0,9.8,6.4,9.8,12.7c0,1.4-0.1,2.6-0.2,3.1H479.7z M487.7,629.8c0-1.9-0.7-5.2-3.9-5.2
		c-2.9,0-4,3-4.2,5.2H487.7z"/>
</g>
</svg>
