<?xml version="1.0" encoding="utf-8"?>
<!-- Generator: Adobe Illustrator 26.3.1, SVG Export Plug-In . SVG Version: 6.00 Build 0)  -->
<svg version="1.1" id="Layer_1" xmlns="http://www.w3.org/2000/svg" xmlns:xlink="http://www.w3.org/1999/xlink" x="0px" y="0px"
	 viewBox="0 0 700 700" style="enable-background:new 0 0 700 700;" xml:space="preserve">
<style type="text/css">
	.st0{enable-background:new    ;}
</style>
<g id="Layer_1_00000025427001411633678430000001577025327401139111_">
	<g>
		<path d="M507.5,484.9l-19.2-19.2L467.5,476l34,54.4c2.6,4.1,9.3,4.1,11.9,0l34-54.4l-20.8-10.4L507.5,484.9z"/>
		<path d="M454.6,236.2h24.5l-4-17.9l-16.7,5.6C457.3,228.1,456,232.2,454.6,236.2L454.6,236.2z"/>
		<path d="M424.9,257.9c8.3-13.2,14.3-27.6,17.7-42.7l1.1-4.8l20.1-6.7v-39.9l-20.1-6.7l-1.1-4.8c-3.5-15.1-9.4-29.5-17.7-42.7
			l-2.6-4.2l9.5-19l-28.2-28.2l-19,9.5l-4.2-2.6c-13.2-8.3-27.6-14.3-42.7-17.7l-4.8-1.1l-6.7-20.1h-39.9l-6.7,20.1l-4.8,1.1
			c-15.1,3.5-29.5,9.4-42.7,17.7l-4.2,2.6l-19-9.5l-28.2,28.2l9.5,19l-2.6,4.2c-8.3,13.2-14.3,27.6-17.7,42.7l-1.1,4.8l-20.1,6.7
			v39.9l20.1,6.7l1.1,4.8c3.5,15.1,9.4,29.5,17.7,42.7l2.6,4.2l-9.5,19l28.2,28.2l19-9.5l4.2,2.6c13.2,8.3,27.6,14.3,42.7,17.7
			l4.8,1.1l6.7,20.1h39.9l6.7-20.1l4.8-1.1c15.1-3.5,29.5-9.4,42.7-17.7l4.2-2.6l19,9.5l28.2-28.2l-9.5-19L424.9,257.9z
			 M306.2,297.5c-62.8,0-113.8-50.9-113.8-113.8S243.4,70,306.2,70S420,120.9,420,183.7S369.1,297.5,306.2,297.5z"/>
		<path d="M481.2,323.8h-17.5v134.6l17.5-8.8V323.8z"/>
		<path d="M497,236.2h21l16.4-73.7l23.9-31.8L540,100.3l-32.5,24.4l-33-24.7L454,129.6c1.7,4.6,3.2,9.2,4.5,14l22.8,7.6v14.1
			L497,236.2z"/>
		<path d="M533.8,449.6l17.5,8.8V323.8h-17.5V449.6z"/>
		<path d="M516.2,451.4V323.8h-17.5v127.6l8.8,8.8L516.2,451.4z"/>
		<path d="M560,253.8H447.2c-1.5,3.1-3.2,6.2-5,9.2l4.2,8.3H560c4.8,0,8.8-3.9,8.8-8.8S564.8,253.8,560,253.8L560,253.8z"/>
		<path d="M507.5,26.2c-29.3,0-56.8,13.5-75,36.2L453,83l-10.8,21.5c1.2,2.1,2.3,4.2,3.4,6.3L470.4,75l37,27.8L545,74.7l34.3,57.1
			L550.6,170l-14.7,66.3h15.9c1.9-15.9,9-30.7,20.5-42.2l3.2-3.2c18.2-18.2,28.2-42.4,28.2-68.1C603.8,69.4,560.6,26.2,507.5,26.2
			L507.5,26.2z"/>
		<path d="M560,288.8H448.7l-2.5,2.5v6.3c0,4.8,3.9,8.8,8.8,8.8h105c4.8,0,8.8-3.9,8.8-8.8S564.8,288.8,560,288.8L560,288.8z"/>
		<path d="M359.4,171.6l-94.2-39.3c-1.8-0.7-3.7-1.1-5.6-1.1c-8.1,0-14.6,6.5-14.6,14.6v75.8c0,8.1,6.5,14.6,14.6,14.6
			c1.9,0,3.8-0.4,5.6-1.1l94.2-39.3c4.9-2,8.1-6.8,8.1-12.1S364.3,173.7,359.4,171.6L359.4,171.6z"/>
		<path d="M175,367.5h52.5v175H175V367.5z"/>
		<path d="M262.5,437.5H315v105h-52.5V437.5z"/>
		<path d="M87.5,332.5H140v210H87.5V332.5z"/>
		<path d="M350,402.5h52.5v140H350V402.5z"/>
	</g>
</g>
<g class="st0">
	<path d="M222.9,633.8h-11.1v8.4h12.4v6.5H205v-35.2h18.6v6.5h-11.8v7.3h11.1V633.8z"/>
	<path d="M228.7,631.3c0-3.2-0.1-5.9-0.2-8.1h5.7l0.3,3.4h0.1c0.9-1.6,2.9-4,6.6-4c2.8,0,5.1,1.7,6,4.3h0.1c0.8-1.3,1.8-2.3,2.8-3.1
		c1.2-0.8,2.6-1.3,4.2-1.3c4.2,0,7.4,3.4,7.4,11.1v15h-6.6v-13.9c0-3.7-1-5.8-3.2-5.8c-1.6,0-2.7,1.3-3.1,2.8
		c-0.2,0.6-0.3,1.4-0.3,2v14.9h-6.6v-14.3c0-3.2-1-5.4-3.1-5.4c-1.7,0-2.8,1.6-3.2,2.9c-0.2,0.6-0.3,1.4-0.3,2v14.9h-6.6V631.3z"/>
	<path d="M267.2,631.7c0-3.3-0.1-6.2-0.2-8.6h5.9l0.3,3.5h0.1c1.6-2.7,4.1-4.1,7.3-4.1c4.8,0,9.1,4.9,9.1,13
		c0,9.3-5.1,13.7-9.9,13.7c-2.6,0-4.7-1.3-5.7-2.9H274V659h-6.8V631.7z M274,637.7c0,0.6,0,1.2,0.1,1.7c0.4,2.1,2,3.8,4,3.8
		c3,0,4.7-2.9,4.7-7.2c0-4.1-1.6-7.2-4.6-7.2c-1.9,0-3.6,1.7-4.1,4c-0.1,0.4-0.1,0.9-0.1,1.4V637.7z"/>
	<path d="M293.9,611.6h6.8v37.1h-6.8V611.6z"/>
	<path d="M327.9,635.6c0,9.3-5.7,13.6-11.6,13.6c-6.4,0-11.3-4.9-11.3-13.2c0-8.2,4.7-13.5,11.7-13.5
		C323.4,622.6,327.9,627.9,327.9,635.6z M312,635.9c0,4.4,1.6,7.7,4.5,7.7c2.6,0,4.3-3.1,4.3-7.7c0-3.8-1.3-7.7-4.3-7.7
		C313.2,628.2,312,632.1,312,635.9z"/>
	<path d="M336.8,623.1l3.3,12.5c0.4,1.5,0.8,3.4,1.1,4.7h0.1c0.3-1.4,0.7-3.3,1-4.7l2.7-12.5h7.3l-5.1,16.8
		c-3.1,10.1-5.2,14.2-7.7,16.8c-2.4,2.4-4.9,3.2-6.6,3.5l-1.4-6.7c0.9-0.2,1.9-0.6,3-1.4c1-0.6,2.1-1.9,2.8-3.2
		c0.2-0.4,0.4-0.8,0.4-1.1c0-0.3,0-0.7-0.3-1.3l-8-23.3H336.8z"/>
	<path d="M359.7,638.4c0.2,3.3,3,4.9,6.2,4.9c2.3,0,4.2-0.4,6-1l0.9,5.4c-2.2,1-5,1.6-7.9,1.6c-7.4,0-11.7-5-11.7-13
		c0-6.5,3.4-13.6,11.1-13.6c7.1,0,9.8,6.4,9.8,12.7c0,1.4-0.1,2.6-0.2,3.1H359.7z M367.7,633c0-1.9-0.7-5.2-3.9-5.2
		c-2.9,0-4,3-4.2,5.2H367.7z"/>
	<path d="M383.3,638.4c0.2,3.3,3,4.9,6.2,4.9c2.3,0,4.2-0.4,6-1l0.9,5.4c-2.2,1-5,1.6-7.9,1.6c-7.4,0-11.7-5-11.7-13
		c0-6.5,3.4-13.6,11.1-13.6c7.1,0,9.8,6.4,9.8,12.7c0,1.4-0.1,2.6-0.2,3.1H383.3z M391.3,633c0-1.9-0.7-5.2-3.9-5.2
		c-2.9,0-4,3-4.2,5.2H391.3z"/>
	<path d="M411,613.9c2.2-0.4,5.5-0.7,9.1-0.7c4.5,0,7.6,0.8,9.8,2.8c1.8,1.7,2.8,4.1,2.8,7.4c0,4.5-2.7,7.6-5.3,8.7v0.2
		c2.1,1,3.3,3.3,4,6.6c0.9,4,1.9,8.6,2.5,9.9h-7c-0.5-1-1.2-3.9-2.1-8.2c-0.8-4.4-2.1-5.6-4.9-5.6h-2.1v13.8H411V613.9z
		 M417.7,629.1h2.7c3.4,0,5.4-2,5.4-5.1c0-3.2-1.9-4.9-5-4.9c-1.7,0-2.6,0.2-3.1,0.3V629.1z"/>
	<path d="M458.9,635.6c0,9.3-5.7,13.6-11.5,13.6c-6.4,0-11.3-4.9-11.3-13.2c0-8.2,4.7-13.5,11.7-13.5
		C454.5,622.6,458.9,627.9,458.9,635.6z M443.1,635.9c0,4.4,1.6,7.7,4.5,7.7c2.6,0,4.3-3.1,4.3-7.7c0-3.8-1.3-7.7-4.3-7.7
		C444.3,628.2,443.1,632.1,443.1,635.9z"/>
	<path d="M463.2,611.6h6.8v37.1h-6.8V611.6z"/>
	<path d="M480.7,638.4c0.2,3.3,3,4.9,6.2,4.9c2.3,0,4.2-0.4,6-1l0.9,5.4c-2.2,1-5,1.6-7.9,1.6c-7.4,0-11.7-5-11.7-13
		c0-6.5,3.4-13.6,11.1-13.6c7.1,0,9.8,6.4,9.8,12.7c0,1.4-0.1,2.6-0.2,3.1H480.7z M488.7,633c0-1.9-0.7-5.2-3.9-5.2
		c-2.9,0-4,3-4.2,5.2H488.7z"/>
</g>
</svg>
